<svg xmlns="http://www.w3.org/2000/svg" xmlns:xlink="http://www.w3.org/1999/xlink" width="513" height="768" viewBox="0 0 513 768">
    <defs>
        <path id="a" d="M.445 0h138.138v189.512H.445z"/>
        <path id="c" d="M.053 0h97.532v122.764H.053z"/>
        <path id="e" d="M.152 0h147.816v201.915H.152z"/>
        <path id="g" d="M.064.007h228.808V166H.064z"/>
        <path id="i" d="M.065.282H189.83v159.862H.065z"/>
        <path id="k" d="M.064.483H77.59V60H.064z"/>
        <path id="m" d="M.064.264h99.7V75H.065z"/>
        <path id="o" d="M.065.254h55.728V103.98H.065z"/>
        <path id="q" d="M.462 0h241.086v248.751H.462z"/>
        <path id="s" d="M.065.193H42.88V90.52H.065z"/>
        <path id="u" d="M.065.081H74.86v116.648H.065z"/>
        <path id="w" d="M.065.022h121.431v138.566H.065z"/>
        <path id="y" d="M.064.449H140.88v189.16H.064z"/>
        <path id="A" d="M.064 0h142.733v213.894H.064z"/>
        <path id="C" d="M.065 0h124.557v200.931H.065z"/>
        <path id="E" d="M.065 0h93.617v186.502H.065z"/>
        <path id="G" d="M.291 0h382.574v272.998H.291z"/>
        <path id="I" d="M.003 0h264.569v262.793H.003z"/>
        <path id="K" d="M.117 0h216.558v236.593H.117z"/>
        <path id="M" d="M.026 0h191.805v502H.026z"/>
        <path id="O" d="M.005 0H176.93v502H.005z"/>
        <path id="Q" d="M.064.457h363.464v183.017H.064z"/>
        <path id="S" d="M.064.209h294.86V176H.063z"/>
        <path id="U" d="M.064.497h202.854V165H.064z"/>
        <path id="W" d="M.066.086h64.837V52H.066z"/>
        <path id="Y" d="M.064.49h90.864V69H.064z"/>
        <path id="aa" d="M.064.385h116.682V83H.064z"/>
        <path id="ac" d="M.065.392h153.867v103.662H.065z"/>
        <path id="ae" d="M.064.482H165.63V132H.064z"/>
        <path id="ag" d="M.39 0h70.193v65.58H.391z"/>
        <path id="ai" d="M.006 0h88.571v113.574H.006z"/>
        <path id="ak" d="M.247 0h107.338v140.92H.247z"/>
        <path id="am" d="M.397 0h129.187v165.571H.397z"/>
        <path id="ao" d="M.234 0h152.345v219.917H.234z"/>
        <path id="aq" d="M.023 0h180.56v402.797H.023z"/>
        <path id="as" d="M.322.22h42.265v270.625H.322z"/>
        <path id="au" d="M.04.42h29.534v239.263H.04z"/>
        <path id="aw" d="M.287 0h115.485v502H.287z"/>
        <path id="ay" d="M.47.452h184.113v90.696H.469z"/>
        <path id="aA" d="M.307.136h162.639V72H.307z"/>
        <path id="aC" d="M.386.23H145.9v60.244H.386z"/>
        <path id="aE" d="M.11.161h126.453V52H.11z"/>
        <path id="aG" d="M.46.139H105.99V35H.46z"/>
        <path id="aI" d="M.018.462h88.967V23H.018z"/>
        <path id="aK" d="M.362 0h129.28v502H.362z"/>
        <path id="aM" d="M.285.445H133.67v268.074H.285z"/>
        <path id="aO" d="M.262 0h56.601v502H.263z"/>
        <path id="aQ" d="M.502 0h121.312v195.743H.502z"/>
        <path id="aS" d="M.445 0h69.454v151.619H.445z"/>
        <path id="aU" d="M.345 0h91.414v174.696H.345z"/>
    </defs>
    <g fill="none" fill-rule="evenodd" opacity=".04">
        <g transform="rotate(-90 79 71.5)">
            <mask id="b" fill="#fff">
                <use xlink:href="#a"/>
            </mask>
            <path fill="#303030" d="M149.56 75.74c-4.965 3.32-9.491 8.324-13.968 15.28-3.033 4.71-6.018 9.542-8.907 14.214-9.263 14.987-18.841 30.484-31.04 43.694-2.695 2.918-5.58 6.524-8.634 10.342-10.424 13.031-23.383 29.233-38.25 29.232l-.24-.002c-24.962-.293-46.054-21.238-47.014-46.69-.726-19.198 5.585-36.8 11.686-53.82.956-2.666 1.91-5.33 2.84-8 5.607-16.107 17.95-29.758 29.886-42.96C58.399 23.228 71.258 9 76.397-8.085h-1.053C70.206 8.66 57.506 22.713 45.177 36.35 33.172 49.627 20.76 63.354 15.086 79.655a923.755 923.755 0 0 1-2.837 7.991C6.114 104.758-.23 122.453.503 141.849 1.485 167.83 23.02 189.21 48.51 189.51l.252.002c15.344-.002 28.472-16.41 39.03-29.608 3.043-3.803 5.917-7.396 8.588-10.288 12.265-13.282 21.87-28.821 31.158-43.847 2.885-4.67 5.87-9.498 8.897-14.2 4.224-6.563 8.488-11.334 13.125-14.577V75.74z" mask="url(#b)"/>
        </g>
        <g transform="rotate(-90 58.5 50)">
            <mask id="d" fill="#fff">
                <use xlink:href="#c"/>
            </mask>
            <path fill="#303030" d="M108.526 44.763C95.76 51.135 81.913 58.48 72.956 69.366c-4.13 5.02-8.175 10.384-12.088 15.572-7.977 10.58-16.227 21.517-25.867 30.496-7.283 6.783-18.83 9.628-28.206.686C-.06 109.582.33 94.77 2.264 86.41 6.707 67.21 18.922 47.941 29.068 33.3c2.175-3.139 4.165-6.35 6.09-9.458 2.981-4.817 6.066-9.798 9.861-14.51l.953-1.179C49.656 3.607 54.263-2.084 56.476-8H55.4C53.193-2.36 48.757 3.13 45.194 7.525l-.955 1.18c-3.833 4.761-6.934 9.77-9.933 14.612-1.917 3.096-3.899 6.297-6.06 9.415C18.05 47.446 5.77 66.82 1.29 86.184c-1.986 8.584-2.342 23.833 4.816 30.66 4.393 4.19 9.236 5.92 13.93 5.92 5.825 0 11.423-2.665 15.646-6.599 9.705-9.038 17.981-20.012 25.984-30.625 3.907-5.18 7.947-10.537 12.063-15.539 8.723-10.603 22.246-17.843 34.797-24.119v-1.119z" mask="url(#d)"/>
        </g>
        <path fill="#303030" d="M267.023 74.189c0 7.49 1.507 13.5 4.742 18.915 2.917 4.882 11.07 11.722 15.926 10.807 2.187-.413 3.566-2.359 4.1-5.788.123-.794.186-1.614.186-2.44 0-4.356-1.679-8.489-3.457-12.865-1.83-4.506-3.723-9.166-3.723-14.226 0-.881.06-1.764.174-2.624.191-1.424.961-3.657 1.852-6.246 1.515-4.397 3.4-9.867 3.4-14.057v-.001c0-3.28-1.155-5.23-3.535-5.96l-2.427-.595c-1.806 1.665-3.542 3.087-5.08 4.346-5.53 4.525-9.522 7.793-10.945 17.273-.6 3.994-1.213 8.717-1.213 13.46M293 95.684c0 .876-.066 1.749-.198 2.592-.606 3.894-2.261 6.123-4.918 6.624-5.72 1.078-14.258-6.693-17.002-11.286-3.284-5.5-4.882-11.853-4.882-19.424 0-4.809.618-9.576 1.222-13.607 1.483-9.86 5.602-13.232 11.303-17.9 1.662-1.36 3.382-2.767 5.236-4.493l.204-.189 3 .737c2.85.874 4.282 3.203 4.282 6.927v.002c-.001 4.354-1.915 9.912-3.454 14.379-.874 2.537-1.63 4.728-1.807 6.054-.11.817-.166 1.656-.166 2.493 0 4.866 1.855 9.435 3.65 13.854 1.736 4.27 3.53 8.687 3.53 13.237"/>
        <g transform="matrix(0 -1 1 0 9 300)">
            <mask id="f" fill="#fff">
                <use xlink:href="#e"/>
            </mask>
            <path fill="#303030" d="M146.944-8.04c-3.21 14.556-14.543 30.664-25.704 44.948-12.162 15.566-22.113 32.896-30.42 52.978-3.097 7.491-6.028 14.93-8.86 22.127-4.781 12.145-9.726 24.703-15.448 37.373-4.059 8.988-4.002 17.648-3.938 27.676.007 1.15.015 2.316.016 3.5.003 3.378-.439 8.467-1.686 12.618-2.221 7.39-6.076 9.501-11.493 6.214-5.543-3.365-7.636-12.332-9.317-19.538-.463-1.982-.899-3.855-1.37-5.449-2.268-7.672-5.599-15.07-8.819-22.222a694.275 694.275 0 0 1-2.446-5.475c-1.217-2.767-2.544-5.616-3.827-8.371-2.474-5.311-5.031-10.804-7.05-16.208-.83-2.22-1.775-4.5-2.775-6.916-2.892-6.985-5.883-14.208-6.61-21.134-.649-6.192-1.808-11.579-3.036-17.282-.874-4.058-1.776-8.254-2.47-12.743C-.143 52.178 3.098 41.87 6.51 33.35c.818-2.039 1.608-4.07 2.395-6.09 3.167-8.13 6.159-15.808 10.492-23.34 1.065-1.85 2.181-4.117 3.363-6.516a229.896 229.896 0 0 1 2.744-5.444h-1.138c-.868 1.668-1.702 3.362-2.51 5-1.173 2.385-2.284 4.637-3.332 6.459-4.372 7.598-7.376 15.31-10.557 23.476a656.42 656.42 0 0 1-2.391 6.083C2.112 41.622-1.175 52.093.695 64.21c.7 4.517 1.606 8.728 2.482 12.8 1.22 5.676 2.375 11.038 3.02 17.175.74 7.071 3.76 14.362 6.68 21.414.996 2.407 1.938 4.68 2.76 6.883 2.036 5.441 4.6 10.952 7.082 16.28 1.28 2.75 2.604 5.596 3.818 8.352.805 1.83 1.626 3.656 2.45 5.483 3.206 7.123 6.522 14.488 8.771 22.096.463 1.565.896 3.424 1.355 5.392 1.724 7.388 3.87 16.584 9.775 20.167 1.816 1.103 3.52 1.663 5.06 1.663 3.52 0 6.26-2.92 7.92-8.445 1.28-4.257 1.732-9.46 1.729-12.91-.001-1.185-.01-2.353-.016-3.505-.064-9.91-.119-18.468 3.849-27.256 5.733-12.693 10.681-25.263 15.467-37.419 2.831-7.191 5.76-14.627 8.854-22.11 8.272-19.998 18.177-37.25 30.284-52.744C133.317 23.086 144.77 6.78 147.968-8.04h-1.024z" mask="url(#f)"/>
        </g>
        <g transform="rotate(-90 555.5 211)">
            <mask id="h" fill="#fff">
                <use xlink:href="#g"/>
            </mask>
            <path fill="#303030" d="M20.348 2.013C30.213.54 40.569-.05 49.483 5.572c4.477 2.823 8.252 7.36 11.9 11.75 2.364 2.842 4.809 5.782 7.41 8.209 2.293 2.136 4.435 4.344 6.508 6.48 4.235 4.365 8.236 8.488 13.284 11.903 5.018 3.393 10.495 6.097 15.794 8.712 3.6 1.777 7.32 3.614 10.84 5.64 1.714.989 3.456 1.94 5.298 2.946 7.718 4.216 15.698 8.575 20.87 15.28 4.043 5.244 6.162 12.069 8.211 18.669 1.046 3.365 2.125 6.844 3.442 10.032 3.67 8.884 10.003 18.084 16.528 24.01 7.443 6.762 16.873 11.402 25.993 15.889 4.216 2.075 8.577 4.222 12.616 6.525 8.475 4.833 14.271 11.714 19.49 19.383h1.205c-5.311-7.852-11.41-15.24-20.196-20.251-4.065-2.318-8.439-4.471-12.67-6.553-9.058-4.456-18.423-9.065-25.76-15.73-6.423-5.835-12.66-14.898-16.278-23.654-1.299-3.145-2.372-6.603-3.41-9.945-2.076-6.686-4.222-13.598-8.375-18.984-5.3-6.871-13.375-11.281-21.182-15.547-1.838-1.004-3.574-1.952-5.28-2.934-3.546-2.043-7.283-3.888-10.896-5.671-5.268-2.601-10.716-5.29-15.676-8.645-4.962-3.355-8.928-7.442-13.125-11.77-2.082-2.144-4.234-4.362-6.544-6.516-2.556-2.383-4.979-5.297-7.323-8.115-3.699-4.45-7.524-9.05-12.137-11.96-9.19-5.793-19.764-5.203-29.821-3.7-4.969.742-9.69 2.576-14.255 4.349C3.029 6.507.053 7.659-3.013 8.54v1.045c3.205-.903 6.295-2.103 9.322-3.28 4.515-1.754 9.182-3.567 14.039-4.293" mask="url(#h)"/>
        </g>
        <g transform="rotate(-90 560 207.5)">
            <mask id="j" fill="#fff">
                <use xlink:href="#i"/>
            </mask>
            <path fill="#303030" d="M44.797 10.97c14.806 19.178 28.542 31.324 41.997 37.135 17.861 7.714 35.96 17.447 47.355 36.267 4.162 6.875 7 14.671 9.743 22.212a420.524 420.524 0 0 0 2.498 6.745c3.251 8.47 8.715 17.598 16.706 27.904 6.9 8.897 14.857 15.754 22.427 21.838.779.626 1.598 1.277 2.445 1.95l.24.19h1.623l-1.237-.984a479.716 479.716 0 0 1-2.44-1.947c-7.524-6.046-15.427-12.856-22.263-21.672-7.93-10.225-13.347-19.266-16.56-27.643-.85-2.217-1.669-4.468-2.492-6.73-2.76-7.585-5.615-15.43-9.83-22.39-11.541-19.063-29.802-28.891-47.817-36.67-13.294-5.742-26.901-17.788-41.6-36.827C37.9.383 32.875-.244 20.466.508 14.307.881 3.217 2.6-3.024 6.542v1.21C2.533 3.94 13.338 1.953 20.528 1.52c12.257-.74 16.84-.172 24.269 9.45" mask="url(#j)"/>
        </g>
        <g transform="rotate(-90 609 157)">
            <mask id="l" fill="#fff">
                <use xlink:href="#k"/>
            </mask>
            <path fill="#303030" d="M1.519 5.549c3.612-3.041 7.588-4.425 11.487-3.99 4.325.478 8.56 3.18 11.926 7.61 2.806 3.694 5.36 7.444 7.83 11.07 7.273 10.674 14.14 20.756 26.386 28.353.895.556 1.813 1.105 2.737 1.658 5.91 3.535 12.02 7.192 14.336 13.732.123.347.216.68.318 1.018h1.051a21.808 21.808 0 0 0-.419-1.35c-2.436-6.88-8.705-10.63-14.766-14.256-.92-.551-1.833-1.097-2.724-1.65-12.064-7.485-18.874-17.481-26.084-28.064-2.479-3.638-5.04-7.4-7.86-11.111-3.535-4.653-8.017-7.496-12.62-8.003C8.934.106 4.697 1.563.87 4.785c-1.128.949-2.489 2.376-3.89 4.09V10.5c1.639-2.114 3.264-3.877 4.54-4.95" mask="url(#l)"/>
        </g>
        <g transform="rotate(-90 601.5 165)">
            <mask id="n" fill="#fff">
                <use xlink:href="#m"/>
            </mask>
            <path fill="#303030" d="M30.904 12.332c1.886 3 3.621 6.344 5.298 9.58 2.424 4.678 4.931 9.516 7.967 13.45 5.1 6.606 12.89 10.202 20.42 13.68 1.998.923 3.886 1.794 5.737 2.725 7.645 3.842 18.51 10.005 24.57 19.132 1.819 2.742 2.968 5.92 3.825 9.136h1.044c-.886-3.39-2.087-6.761-4.033-9.693-6.19-9.328-17.207-15.582-24.954-19.475-1.867-.939-3.85-1.854-5.767-2.739-7.422-3.427-15.096-6.971-20.047-13.382-2.981-3.862-5.466-8.66-7.87-13.297-1.687-3.255-3.431-6.62-5.34-9.653-6.703-10.657-14.78-13.814-25.409-9.94-2.038.742-5.823 2.953-9.36 5.747v1.299c3.484-2.866 7.4-5.26 9.704-6.1 10.25-3.734 17.718-.796 24.215 9.53" mask="url(#n)"/>
        </g>
        <g transform="rotate(-90 469 297)">
            <mask id="p" fill="#fff">
                <use xlink:href="#o"/>
            </mask>
            <path fill="#303030" d="M42.047 59.988c-8.472-6.69-14.045-12.651-17.464-23.328-.535-1.666-1.063-3.418-1.606-5.212-3.55-11.73-7.57-25.024-16.917-29.603C3.35.516.296.028-3.055.349v.994c3.192-.33 6.062.132 8.665 1.407 8.949 4.385 12.903 17.456 16.392 28.988.545 1.8 1.075 3.557 1.61 5.228 3.498 10.921 9.175 17.001 17.8 23.812C49.735 67.35 58.203 75.284 53.31 86.29c-4.073 9.157-12.565 14.97-23.914 16.37-11.716 1.45-24.195-2.237-32.45-9.167v1.31c7.211 5.75 17.292 9.177 27.339 9.177 1.75 0 3.503-.104 5.236-.317 11.72-1.446 20.498-7.47 24.72-16.966 5.186-11.665-3.574-19.904-12.194-26.71" mask="url(#p)"/>
        </g>
        <g transform="rotate(-90 305.5 296)">
            <mask id="r" fill="#fff">
                <use xlink:href="#q"/>
            </mask>
            <path fill="#303030" d="M240.382-8.05c-.048.085-.098.162-.144.247-1.647 3.019-3.188 6.259-4.678 9.39-4.216 8.863-8.577 18.028-16.167 24.374-8.65 7.23-19.452 11.659-29.896 15.941-1.41.577-2.804 1.149-4.176 1.72-3.946 1.647-7.934 3.498-11.789 5.288-5.332 2.476-10.845 5.037-16.387 7.117-7.044 2.646-13.756 3.708-20.862 4.832-3.647.576-7.418 1.173-11.27 2.004-21.566 4.654-35.603 12.18-50.064 26.838-16.46 16.687-20.03 37.067-23.485 56.777-.58 3.304-.918 6.53-1.244 9.649-.782 7.463-1.52 14.513-5.379 21.726-3.065 5.731-7.926 10.442-12.624 14.998a242.094 242.094 0 0 0-3.898 3.833c-7.17 7.275-12.007 14.514-15.683 23.473-1.023 2.495-1.848 5.482-2.724 8.645-1.837 6.648-3.906 14.137-8.338 17.993-.478-10.169.756-19.997 1.951-29.513 1.177-9.367 2.393-19.053 2.01-29.15-.872-22.929-.18-42.165 6.032-61.522 6.807-21.207 18.344-34.32 34.753-48.603 4.237-3.687 8.649-7.304 13.32-11.134 12.378-10.15 25.18-20.646 34.51-32.504 6.19-7.866 8.188-17.184 10.119-26.196l.95-4.373c.882-4.011 1.71-7.824 2.31-11.85h-1.017c-.596 3.94-1.408 7.69-2.275 11.634l-.951 4.379c-1.908 8.899-3.882 18.101-9.927 25.783C84.096 45.52 71.34 55.98 59 66.096c-4.676 3.833-9.092 7.455-13.34 11.152-16.54 14.397-28.173 27.625-35.052 49.056-6.257 19.496-6.955 38.832-6.08 61.867.382 10.015-.83 19.659-2.001 28.987-1.24 9.863-2.52 20.063-1.906 30.67l.053.923.747-.546c5.234-3.84 7.481-11.966 9.462-19.135.866-3.133 1.683-6.092 2.684-8.53 3.623-8.833 8.394-15.972 15.47-23.15a236.032 236.032 0 0 1 3.88-3.817c4.754-4.609 9.672-9.376 12.81-15.246 3.953-7.386 4.701-14.53 5.493-22.096.326-3.102.662-6.31 1.235-9.58 3.427-19.557 6.973-39.78 23.212-56.244 14.308-14.504 28.203-21.952 49.558-26.56 3.825-.826 7.582-1.42 11.215-1.994 7.158-1.132 13.92-2.202 21.06-4.883 5.576-2.095 11.108-4.663 16.457-7.148 3.846-1.786 7.824-3.633 11.752-5.27 1.37-.572 2.762-1.143 4.169-1.72 10.516-4.31 21.39-8.769 30.159-16.1 7.761-6.486 12.17-15.752 16.431-24.712 1.485-3.12 3.02-6.346 4.653-9.34.137-.252.285-.487.427-.73h-1.166z" mask="url(#r)"/>
        </g>
        <path fill="#303030" d="M63.688 677.073c.121.152.286.26.504.328 2.747.873 11.036-4.266 16.521-7.667 2.181-1.353 4.064-2.52 5.175-3.052a96.779 96.779 0 0 1 2.422-1.1c6.004-2.668 17.18-7.634 17.181-14.174v-.001c0-.787-.163-1.59-.487-2.387-1.538-3.797-4.94-2.832-9.579-1.056-1.483.569-2.885 1.105-4.042 1.25-3.78.474-5.999-.977-8.144-2.38-1.481-.97-2.88-1.884-4.77-2.16-2.58-.379-3.614-.034-4.026.322-1.058.908.475 3.802 2.021 6.555l.338.605a82.77 82.77 0 0 0 1.12 1.927c1.03 1.731 1.709 2.876 1.709 4.172 0 1.376-.752 2.819-2.872 5.506-2.668 3.38-6.54 7.121-10.632 10.273l-2.439 3.039zm42.812-25.666v.002c-.002 7.192-11.567 12.33-17.78 15.09-.93.414-1.746.777-2.396 1.088-1.06.51-2.922 1.665-5.079 3.002-7.752 4.806-14.41 8.709-17.36 7.77a1.979 1.979 0 0 1-1.268-1.14l-.117-.276 2.963-3.669c4.046-3.11 7.875-6.805 10.502-10.135 1.962-2.486 2.657-3.764 2.657-4.884 0-1.02-.59-2.014-1.569-3.66-.339-.572-.72-1.212-1.133-1.95l-.336-.602c-1.296-2.309-2.52-4.488-2.52-6.103 0-.72.242-1.293.72-1.705.855-.737 2.39-.913 4.832-.557 2.11.31 3.668 1.328 5.177 2.315 2.084 1.363 4.052 2.65 7.464 2.224 1.036-.13 2.382-.646 3.807-1.192 3.942-1.51 8.847-3.388 10.875 1.618.372.92.561 1.848.561 2.764z"/>
        <path fill="#303030" d="M59.507 679.105c0 .597.203 1.18.622 1.78 2.27 3.26 8.056.727 9.905-.417 1.14-.706 2.143-1.629 3.205-2.606 1.43-1.318 2.908-2.68 4.767-3.478 1.748-.752 3.553-1.356 5.299-1.942 2.032-.681 4.133-1.385 6.17-2.328 2.384-1.101 5.128-1.758 7.783-2.393 5.09-1.215 9.898-2.365 12.642-6.366 1.658-2.415 3.593-6.707 3.593-10.852 0-3.372-1.282-5.73-3.81-7.012-4.188-2.123-8.031-.885-12.102.422-2.154.693-4.382 1.41-6.728 1.64-4.23.415-7.55-1.399-10.763-3.153-2.76-1.508-5.367-2.93-8.4-2.893-3.764.045-4.2 1.618-4.2 2.796 0 2.083 1.605 4.962 2.777 7.066.88 1.58 1.36 2.466 1.405 3.069l2.502 3.56c.301 1.212.453 2.363.453 3.421.001 4.994-3.36 7.752-6.918 10.67-1.191.979-2.424 1.99-3.604 3.13-.341.332-.731.677-1.137 1.037-1.622 1.437-3.461 3.067-3.461 4.849m54.993-28.602c0 4.376-2.03 8.887-3.768 11.422-2.965 4.32-8.188 5.568-13.24 6.775-2.607.623-5.3 1.268-7.593 2.328-2.089.965-4.217 1.679-6.274 2.368-1.726.578-3.511 1.177-5.22 1.911-1.702.73-3.116 2.034-4.485 3.295-1.049.965-2.133 1.965-3.356 2.721-2.207 1.367-8.533 4.055-11.262.137-.532-.765-.802-1.556-.802-2.355 0-2.235 2.02-4.024 3.8-5.602.394-.35.772-.685 1.105-1.006 1.21-1.17 2.457-2.194 3.665-3.184 3.515-2.886 6.551-5.376 6.55-9.894 0-.95-.135-1.988-.4-3.085l-2.577-3.605.026-.198c-.001-.372-.682-1.594-1.282-2.672-1.226-2.2-2.903-5.212-2.903-7.556 0-1.704.9-3.75 5.193-3.802 3.298-.04 6.144 1.513 8.896 3.016 3.078 1.68 6.261 3.42 10.183 3.034 2.237-.22 4.413-.919 6.517-1.595 4.084-1.313 8.308-2.671 12.865-.363 2.853 1.446 4.362 4.181 4.362 7.91"/>
        <path fill="#303030" d="M50.998 681.101c0 2.297.994 4.157 2.874 5.38 2.975 1.937 7.709 2.023 11.776.214 2.612-1.16 5.224-2.545 7.75-3.885 3.744-1.985 7.618-4.04 11.707-5.496 2.601-.927 5.27-1.763 7.852-2.572 5.43-1.7 11.043-3.46 16.228-6.137 6.362-3.284 10.804-10.553 10.805-17.676v-.002c0-3.68-1.258-6.845-3.543-8.91-2.543-2.299-6.357-3.26-11.03-2.78-.743.076-1.502.159-2.274.244-7.064.77-15.07 1.643-21.345-1.172-3.397-1.525-6.417-3.9-9.34-6.194-2.797-2.198-5.69-4.47-8.863-5.94-2.646-1.227-4.649-1.489-5.79-.759-.847.541-1.276 1.64-1.276 3.263 0 3.162 1.65 7.306 3.279 9.763.84 1.267 1.753 2.522 2.635 3.735 3.33 4.576 6.476 8.9 6.476 14.374a14.74 14.74 0 0 1-.442 3.54l-.576 3.698c-1.847 2.759-4.78 4.261-7.616 5.714-3.523 1.805-6.852 3.51-8.398 7.434-.59 1.497-.89 2.898-.89 4.164M121 650.927v.002c-.001 7.486-4.668 15.124-11.35 18.574-5.265 2.72-10.921 4.49-16.392 6.204-2.572.806-5.232 1.639-7.815 2.559-4.02 1.433-7.86 3.47-11.573 5.438-2.54 1.347-5.168 2.74-7.81 3.915-4.369 1.943-9.488 1.826-12.739-.29-3.325-2.162-4.225-6.068-2.374-10.763 1.686-4.28 5.342-6.152 8.878-7.963 2.812-1.44 5.468-2.802 7.173-5.283l.489-3.423a13.98 13.98 0 0 0 .422-3.346c0-5.146-3.052-9.34-6.283-13.779-.889-1.221-1.808-2.484-2.66-3.77-1.713-2.584-3.447-6.96-3.447-10.323 0-1.963.602-3.386 1.741-4.115 1.468-.938 3.742-.705 6.76.692 3.279 1.52 6.218 3.83 9.061 6.064 2.875 2.258 5.846 4.592 9.13 6.067 6.025 2.701 13.887 1.845 20.822 1.089.775-.085 1.536-.168 2.28-.244 4.966-.51 9.05.539 11.812 3.033 2.5 2.26 3.875 5.69 3.875 9.662"/>
        <path fill="#303030" d="M91.35 680.49c4.547-2.805 9.85-3.935 15.464-5.13 6.133-1.305 12.475-2.655 17.817-6.383 6.081-4.242 7.358-9.548 7.358-13.253 0-9.456-8.122-18.617-17.735-20.003-4.353-.628-8.91-.623-13.318-.619-3.778.004-7.685.008-11.442-.388-7.221-.76-12.343-5.555-17.383-10.826-1.718-1.797-3.814-5.205-6.24-9.15-5.32-8.653-11.943-19.422-18.88-20.627-2.17-.377-4.197.215-6.196 1.81-1.847 1.472-2.784 4.076-2.784 7.739 0 5.914 2.378 13.1 3.8 17.396l.312.947c2.045 6.244 5.727 11.893 9.288 17.358a252.113 252.113 0 0 1 3.278 5.119c.39.631.787 1.256 1.181 1.876 2.432 3.83 4.729 7.446 4.729 11.197 0 2.798-1.296 5.353-3.96 7.806-1.109 1.022-2.16 1.91-3.175 2.767-3.945 3.332-6.796 5.737-6.796 11.075 0 .964.094 2.03.278 3.172.695 4.296 2.298 7.077 4.903 8.501 5.645 3.087 15.18-.977 22.842-4.241 2.994-1.276 5.821-2.48 8.14-3.155l8.52-2.988zM133 655.724c0 3.942-1.351 9.586-7.787 14.075-5.511 3.845-11.955 5.217-18.187 6.543-5.544 1.181-10.781 2.296-15.188 5.029l-.1.048-8.597 3.015c-2.286.666-5.087 1.859-8.052 3.123-8.272 3.525-17.65 7.522-23.728 4.198-2.855-1.562-4.677-4.665-5.413-9.223-.197-1.21-.292-2.3-.292-3.33 0-5.803 3.157-8.468 7.152-11.841a93.991 93.991 0 0 0 3.143-2.738c2.447-2.254 3.636-4.566 3.636-7.07 0-3.46-2.22-6.957-4.572-10.661-.396-.623-.795-1.252-1.188-1.886-1.059-1.713-2.18-3.434-3.265-5.1-3.596-5.517-7.314-11.224-9.4-17.593l-.312-.943c-1.44-4.352-3.85-11.635-3.85-17.71 0-3.983 1.063-6.85 3.162-8.523 2.208-1.76 4.564-2.439 7.002-2.015 7.39 1.283 14.143 12.266 19.57 21.092 2.397 3.896 4.466 7.26 6.11 8.98 5.093 5.327 9.869 9.796 16.757 10.521 3.703.39 7.582.386 11.334.382 4.443-.004 9.038-.009 13.465.63 10.082 1.453 18.6 11.07 18.6 20.997z"/>
        <path fill="#303030" d="M65.082 694.48c4.525-4.455 13.337-7.053 20.425-9.143 1.912-.563 3.718-1.096 5.306-1.623 4.751-1.575 9.712-2.422 14.509-3.242 5.494-.937 11.175-1.908 16.63-3.977 9.72-3.685 17.86-8.725 26.034-13.998 1.973-1.274 4.325-2.547 6.814-3.896 8.008-4.336 17.084-9.251 18.784-16.766.268-1.186.405-2.32.405-3.369v-.003c0-2.98-1.109-5.438-3.297-7.305-9.533-8.138-37.55-3.852-49.513-2.023-1.512.231-2.811.43-3.844.571-11.443 1.566-23.625.548-32.584-2.727-7.025-2.568-12.62-10.701-17.114-17.236-.52-.755-1.024-1.49-1.515-2.192-.358-.512-.822-1.188-1.38-2.004-6.487-9.465-26.222-38.27-38.233-38.54-2.199-.048-3.974.864-5.426 2.79-1.375 1.825-2.072 4.697-2.072 8.54 0 8.338 3.286 18.766 5.506 23.188 2.16 4.3 4.622 8.552 7.002 12.664 2.432 4.2 4.947 8.541 7.139 12.935.9 1.805 1.961 3.747 3.087 5.802 4.178 7.634 8.931 16.312 8.61 23.795-.34 7.792-5.969 13.168-11.413 18.367-2.097 2.002-4.265 4.073-6.045 6.22-1.77 2.134-7.545 9.514-7.545 14.84 0 3.221 2.082 5.069 6.363 5.65 4.998.676 9.173-.526 13.595-1.8.794-.228 1.598-.46 2.418-.683 1.455-.397 3-.72 4.635-1.062 3.025-.632 6.151-1.285 8.74-2.45l3.98-1.322zM175 638.464v.004c0 1.123-.145 2.33-.43 3.589-1.799 7.959-11.089 12.99-19.285 17.428-2.474 1.34-4.809 2.604-6.75 3.856-8.22 5.305-16.41 10.374-26.223 14.095-5.547 2.103-11.278 3.081-16.819 4.029-4.76.813-9.681 1.653-14.36 3.204-1.605.532-3.418 1.068-5.338 1.633-7.024 2.072-15.765 4.649-20.08 8.974l-.086.084-4.159 1.379c-2.64 1.193-5.822 1.857-8.899 2.5-1.62.337-3.15.657-4.576 1.046-.815.224-1.614.454-2.404.681-4.527 1.304-8.802 2.535-14.012 1.829-5.983-.81-7.239-4.063-7.239-6.645 0-5.507 5.438-12.661 7.776-15.48 1.818-2.193 4.008-4.284 6.126-6.307 5.3-5.061 10.78-10.294 11.102-17.684.32-7.226-4.372-15.753-8.488-23.272-1.129-2.063-2.195-4.012-3.104-5.835-2.178-4.365-4.685-8.694-7.108-12.88-2.389-4.125-4.858-8.389-7.032-12.716C21.35 597.468 18 586.837 18 578.336c0-4.065.766-7.14 2.274-9.142 1.64-2.175 3.745-3.248 6.257-3.192 12.532.282 32.488 29.408 39.046 38.979.556.812 1.02 1.486 1.375 1.996.493.704 1 1.44 1.52 2.197 4.413 6.417 9.906 14.404 16.628 16.86 8.68 3.173 20.979 4.198 32.097 2.676 1.029-.141 2.323-.34 3.828-.57 13.126-2.006 40.44-6.184 50.326 2.254 2.421 2.067 3.649 4.782 3.649 8.069zM138.983 489.011c0 2.752 2.728 5.39 6.083 5.878 3.669.534 8.117-1.322 13.22-5.516 8.023-6.591 9.926-14.509 12.13-23.678.304-1.263.613-2.549.945-3.856 1.38-5.452 2.656-11.315 2.656-17.245 0-4.693-.8-8.793-2.446-12.533-2.158-4.902-9.039-10.462-14.346-10.015-2.921.246-4.902 2.272-5.89 6.018a11.18 11.18 0 0 0-.363 2.847c0 3.979 1.943 7.9 4 12.053 2.264 4.575 4.613 9.334 4.271 14.305-.566 8.37-4.58 13.803-8.83 19.556-1.688 2.285-3.434 4.649-4.998 7.256l-.118.195-4.032.7c-1.493 1.169-2.282 2.563-2.282 4.035M175 444.593v.001c0 6.046-1.293 11.986-2.69 17.505-.33 1.304-.637 2.586-.94 3.845-2.248 9.35-4.19 17.424-12.473 24.233-5.323 4.373-10.023 6.298-13.968 5.724-3.82-.556-6.929-3.646-6.929-6.89 0-1.285.481-3.182 2.777-4.93l.094-.073 3.827-.664c1.56-2.572 3.275-4.894 4.936-7.142 4.157-5.627 8.083-10.943 8.63-19.005.315-4.706-1.961-9.311-4.166-13.765-2.02-4.077-4.109-8.295-4.109-12.52 0-1.067.134-2.116.398-3.117 1.38-5.24 4.438-6.571 6.759-6.767 5.687-.48 13.03 5.41 15.318 10.608 1.706 3.876 2.536 8.115 2.536 12.957"/>
        <path fill="#303030" d="M152.15 497.491l7.622-3.982c9.28-4.753 12.191-9.77 15.208-19.216 2.365-7.409 4.554-15.574 4.554-25.067v-.001c0-.99-.024-2-.071-3-.462-9.769-1.543-32.645-11.578-40.762-3.355-2.713-7.495-3.562-12.306-2.523-9.457 2.044-12.812 12.257-12.812 20.38 0 1.806.154 3.59.458 5.302.749 4.213 2.66 8.218 4.509 12.09 2.438 5.106 4.959 10.388 4.959 16.34 0 .658-.031 1.324-.093 1.98-.806 8.56-5.591 15.125-10.22 21.473-.602.827-1.206 1.655-1.802 2.488-2.066 2.886-3.112 5.39-3.112 7.441 0 6.316 10.174 7.045 14.683 7.057m28.351-48.266c0 9.64-2.213 17.897-4.605 25.387-3.042 9.528-6.166 14.92-15.695 19.8l-7.823 4.088h-.114c-5.887 0-15.763-1.048-15.763-8.066 0-2.274 1.111-4.98 3.304-8.046.599-.835 1.203-1.666 1.808-2.493 4.755-6.525 9.248-12.688 10.027-20.962.058-.623.088-1.255.088-1.882 0-5.713-2.47-10.887-4.858-15.889-1.878-3.935-3.82-8.004-4.594-12.357a31.444 31.444 0 0 1-.474-5.484c0-8.503 3.557-19.203 13.583-21.368 5.098-1.103 9.503-.19 13.092 2.713 10.386 8.4 11.483 31.602 11.952 41.51.048 1.017.072 2.042.072 3.049"/>
        <path fill="#303030" d="M130.01 490.579c0 5.516 6.101 11.33 10.911 12.045 9.479 1.41 17.843-1.494 24.775-4.52 19.397-8.47 22.294-28.94 22.294-40.39v-.001c0-2.498-.129-5.074-.385-7.662-.256-2.578-.47-5.098-.684-7.58-.723-8.438-1.406-16.407-3.456-24.658-.487-1.957-.955-4.197-1.45-6.568-1.632-7.8-3.662-17.507-7.722-22.955-6.97-9.354-21.22-4.249-27.784-.242-6.422 3.92-10.258 12.526-10.258 23.018 0 1.775.118 3.54.35 5.248 1.38 10.152 4.001 19.895 8.249 30.662 1.73 4.387 2.883 8.136 2.883 12.172 0 1.25-.117 2.503-.349 3.724-.676 3.566-2.211 5.321-3.99 7.353-.916 1.048-1.865 2.132-2.795 3.584l-8.162 11.533c-1.61 1.465-2.427 3.227-2.427 5.237M189 457.713c0 20.195-8.133 34.868-22.9 41.315-7.063 3.084-15.596 6.04-25.328 4.594-5.299-.788-11.772-6.962-11.772-13.043 0-2.289.914-4.29 2.717-5.946l8.045-11.387c.958-1.496 1.975-2.66 2.873-3.685 1.68-1.92 3.132-3.58 3.757-6.876.22-1.16.331-2.349.331-3.537 0-3.876-1.124-7.521-2.813-11.8-4.277-10.847-6.918-20.665-8.31-30.898a40.102 40.102 0 0 1-.358-5.384c0-10.847 4.015-19.773 10.741-23.879 9.517-5.81 22.688-8.131 29.12.5 4.191 5.627 6.248 15.454 7.898 23.352.495 2.361.961 4.592 1.443 6.532 2.07 8.328 2.756 16.335 3.483 24.815.213 2.476.428 4.991.682 7.567.26 2.619.391 5.23.391 7.76"/>
        <path fill="#303030" d="M120.016 486.494c0 1.23.47 2.39 1.439 3.548l.223.266 1.455 5.864c1.327 9.338 15 12.81 23.306 12.806 8.747-.004 17.851-3.277 27.833-10.001 9.955-6.708 16.236-11.614 19.516-23.155 2.075-7.297 4.196-15.964 4.196-24.925a54.756 54.756 0 0 0-.604-8.165c-.692-4.577-.982-9.042-1.263-13.36-.497-7.656-.968-14.885-3.517-22.504-1.568-4.686-2.489-9.556-3.38-14.266-1.322-6.999-2.571-13.61-5.764-19.77l-.599-1.161c-4.217-8.175-9.993-19.367-18.685-21.54-9.246-2.314-21.922-1.269-29.396 6.279-9.338 9.43-14.695 23.317-14.695 38.097 0 6.506 1.006 12.829 2.989 18.79 1.647 4.946 4.332 10.027 6.93 14.941 4.438 8.397 9.028 17.08 9.029 25.952 0 5.59-1.78 10.683-5.444 15.569-1.187 1.584-3.067 3.298-5.057 5.114-3.792 3.458-8.512 7.764-8.512 11.62M201 450.898c0 9.333-2.179 18.256-4.31 25.754-3.554 12.501-10.518 17.95-20.735 24.834-10.495 7.07-20.149 10.511-29.514 10.515-9.665.005-24.615-4.073-26.283-15.322l-1.24-4.974c-1.274-1.623-1.918-3.375-1.918-5.21 0-5.193 5.045-9.796 9.497-13.857 1.882-1.716 3.66-3.337 4.677-4.694 3.256-4.343 4.839-8.84 4.839-13.752-.001-8.123-4.412-16.468-8.678-24.538-2.656-5.022-5.401-10.218-7.126-15.4-2.086-6.27-3.145-12.913-3.145-19.746 0-15.572 5.676-30.234 15.57-40.226 8.878-8.965 22.932-9.418 32.27-7.083 10.013 2.504 16.15 14.398 20.633 23.084l.597 1.156c3.396 6.556 4.745 13.696 6.05 20.601.872 4.61 1.773 9.377 3.276 13.868 2.675 7.99 3.18 15.758 3.667 23.268.276 4.255.562 8.653 1.235 13.104.424 2.802.638 5.701.638 8.618M327.368 605.735c0 3.965 1.642 7.37 4.286 8.884 2.458 1.41 5.544 1.095 8.92-.908 4.915-2.914 7.757-10.528 10.263-17.247 1.025-2.748 1.993-5.343 3.03-7.405.915-1.825 2.119-3.909 3.393-6.114 3.667-6.348 8.232-14.25 8.233-20.302v-.001c0-5.02-3.133-8.125-9.575-9.497-4.317-.92-9.088-.531-13.702-.156-3.805.308-7.738.629-11.428.221-6.665-.735-11.313-2.872-16.695-5.347-1.384-.635-2.823-1.298-4.37-1.97l-.59-.258c-4.368-1.913-15.972-6.993-19.465-1.919-.77 1.12-1.16 2.255-1.16 3.373 0 4.682 6.676 8.608 11.095 11.207.87.512 1.655.974 2.29 1.383 12.079 7.773 24.557 18.065 25.521 35.485l1.04 5.131-.058.142a14.261 14.261 0 0 0-1.028 5.298m39.132-43.093c-.001 6.325-4.641 14.356-8.369 20.81-1.267 2.193-2.462 4.263-3.366 6.061-1.01 2.013-1.969 4.584-2.985 7.306-2.565 6.874-5.472 14.667-10.693 17.763-4.683 2.777-7.986 2.03-9.932.915-2.958-1.694-4.795-5.435-4.795-9.762 0-1.883.361-3.794 1.047-5.537l-.99-4.905c-.948-17.037-13.202-27.129-25.066-34.763-.627-.403-1.4-.857-2.257-1.362-4.617-2.714-11.594-6.818-11.594-12.079 0-1.328.45-2.656 1.34-3.948 3.965-5.76 15.689-.626 20.695 1.566l.588.257c1.553.676 3 1.34 4.39 1.98 5.303 2.438 9.882 4.543 16.385 5.261 3.594.398 7.48.081 11.236-.224 4.687-.38 9.531-.776 13.993.175 6.882 1.465 10.373 4.993 10.373 10.486"/>
        <path fill="#303030" d="M318.827 598.901l2.893 9.596c.792 2.119 1.449 4.646 2.144 7.322 1.72 6.624 3.5 13.473 7.541 14.54 2.676.705 6.314-1.274 10.811-5.881 7.212-7.386 14.115-18.498 20.518-33.029 1.949-4.423 4.35-8.836 6.889-13.508 3.621-6.66 7.364-13.544 9.638-20.375.818-2.462 1.234-4.622 1.235-6.42v-.002c0-2.374-.694-4.135-2.122-5.383-3.916-3.425-12.556-2.31-20.18-1.327-2.453.316-4.77.614-6.795.743-18.258 1.157-32.567.001-47.47-9.316-6.382-3.992-21.33-13.34-28.878-9.451-2.739 1.41-4.261 4.54-4.524 9.301-.633 11.428 11.423 20.348 21.055 27.486 1.83 1.357 3.557 2.637 5.089 3.855 2.967 2.362 23.81 20.923 23.81 28.889 0 1.319-.569 2.334-1.654 2.96m62.673-47.757v.002c-.001 1.905-.433 4.171-1.286 6.734-2.302 6.915-6.067 13.84-9.707 20.536-2.531 4.654-4.92 9.05-6.853 13.435-6.453 14.64-13.423 25.85-20.718 33.323-4.836 4.954-8.692 6.966-11.787 6.15-4.611-1.216-6.465-8.352-8.257-15.254-.69-2.652-1.34-5.155-2.123-7.256l-3.15-10.445.402-.179c.994-.441 1.456-1.156 1.456-2.25 0-6.989-18.664-24.312-23.434-28.107-1.516-1.208-3.238-2.483-5.061-3.834-9.82-7.278-22.114-16.384-21.457-28.342.282-5.14 1.987-8.55 5.065-10.135 8.058-4.15 23.344 5.41 29.872 9.491 14.676 9.177 28.815 10.311 46.872 9.167 1.993-.126 4.294-.423 6.73-.737 7.835-1.011 16.717-2.155 20.973 1.566 1.633 1.43 2.463 3.494 2.463 6.135"/>
        <path fill="#303030" d="M317.445 613.522l2.938 4.887c.589 1.426 1.124 2.881 1.641 4.288 2.185 5.935 4.445 12.071 8.96 13.806 2.58.992 5.701.496 9.54-1.517 8.646-4.533 15.615-15.029 20.105-22.53 1.95-3.255 3.873-6.685 5.734-10.002 3.48-6.2 7.077-12.61 11.058-18.304 3.49-4.992 8.038-9.215 12.438-13.3 3.328-3.09 6.77-6.286 9.669-9.75.957-1.146 2.282-2.58 3.816-4.243 6.603-7.156 17.651-19.131 17.653-28.457v-.002c0-3.59-1.58-6.438-4.835-8.706-6.611-4.608-21.136 2.708-31.74 8.05-3.706 1.867-6.905 3.478-9.186 4.29-15.964 5.677-27.59 8.315-43.273 6.006-16.499-2.43-25.605-10.784-37.135-21.36a723.758 723.758 0 0 0-3.233-2.957c-6.533-5.935-18.964-15.727-28.821-14.638-3.593.398-6.573 2.245-8.857 5.491-1.934 2.752-2.914 5.995-2.914 9.636 0 10.401 7.734 22.11 14.222 30.103 6.25 7.697 13.915 14.122 21.328 20.334 15.816 13.26 30.76 25.787 30.892 48.875M422 528.398v.002c-.002 9.717-10.784 21.402-17.918 29.134-1.525 1.654-2.843 3.08-3.784 4.207-2.94 3.513-6.406 6.73-9.756 9.843-4.36 4.048-8.87 8.234-12.298 13.14-3.953 5.652-7.539 12.04-11.007 18.22-1.864 3.322-3.791 6.758-5.747 10.025-4.552 7.605-11.632 18.252-20.502 22.903-4.108 2.154-7.499 2.667-10.364 1.566-4.94-1.899-7.278-8.253-9.54-14.396-.515-1.4-1.048-2.846-1.595-4.188l-3.045-5.053v-.137c-.072-22.713-14.87-35.117-30.537-48.249-7.448-6.244-15.15-12.7-21.46-20.474-6.59-8.116-14.447-20.037-14.447-30.731 0-3.851 1.042-7.287 3.097-10.21 2.455-3.492 5.675-5.48 9.567-5.911 10.247-1.133 22.947 8.844 29.606 14.89 1.103 1.004 2.18 1.99 3.237 2.962 11.402 10.46 20.41 18.723 36.602 21.106 15.476 2.28 26.978-.335 42.79-5.957 2.222-.79 5.396-2.39 9.07-4.24 10.83-5.457 25.664-12.93 32.766-7.979 3.494 2.434 5.265 5.64 5.265 9.527"/>
        <path fill="#303030" d="M225.027 507.647c0 12.822 6.581 29.22 18.778 34.353l.164.08 14.419 8.23.193.275c3.859 5.471 9.687 9.682 15.323 13.754 4.829 3.49 9.822 7.097 13.6 11.508 8.947 10.446 11.796 24.918 14.309 37.686.21 1.063.417 2.113.624 3.146.613 3.048 1.154 6.23 1.678 9.308 2.055 12.068 4.179 24.547 11.215 34.19 4.449 6.099 9.91 9.132 15.792 8.77 6.52-.397 12.864-5.04 16.97-12.418 4.834-8.687 9.024-17.876 13.074-26.763 8.226-18.04 16.73-36.696 31.085-52.175 3.078-3.317 6.733-6.961 10.604-10.817 16.93-16.871 40.118-39.976 40.118-62.617 0-2.232-.225-4.451-.67-6.598-3.405-16.475-21.885-24.82-36.342-22.005-9.752 1.898-17.604 9.566-25.198 16.981-4.226 4.128-8.218 8.026-12.543 11.027-16.525 11.472-32.462 14.839-48.724 10.292-9.06-2.533-17.417-6.915-25.499-11.153-6.202-3.252-12.616-6.615-19.238-9.07-23.645-8.768-35.304-7.38-40.921-4.669-3.623 1.748-6.015 4.532-7.316 8.511-.991 3.04-1.495 6.462-1.495 10.174M446 504.157c0 23.895-22.737 46.552-41.007 64.757-3.848 3.836-7.485 7.458-10.521 10.733-14.022 15.12-22.425 33.55-30.55 51.373-4.077 8.94-8.291 18.185-13.184 26.978-4.61 8.285-11.874 13.506-19.43 13.969-6.867.419-13.41-3.134-18.424-10.007-7.456-10.22-9.64-23.055-11.754-35.466-.519-3.056-1.058-6.215-1.66-9.22-.209-1.036-.417-2.09-.627-3.158-2.441-12.402-5.208-26.459-13.639-36.304-3.544-4.136-8.174-7.481-13.075-11.022-5.745-4.151-11.683-8.442-15.825-14.185l-13.76-7.855C229.057 539.014 222 521.76 222 507.647c0-4.03.553-7.77 1.645-11.11 1.548-4.739 4.534-8.202 8.876-10.297 8.941-4.315 23.506-2.781 43.291 4.555 6.805 2.523 13.305 5.932 19.592 9.228 7.943 4.165 16.156 8.473 24.908 10.92 15.337 4.287 30.443 1.061 46.18-9.864 4.118-2.857 8.021-6.67 12.156-10.707 7.911-7.726 16.092-15.714 26.734-17.786 15.846-3.086 36.125 6.16 39.886 24.36.486 2.348.732 4.774.732 7.21"/>
        <path fill="#303030" d="M105.896 491.746c0 10.653 10.167 23.612 18.585 27.238 13.003 5.603 31.914 3.542 44.887-.986 2.651-.926 6.397-3.461 10.735-6.396 9.266-6.271 20.798-14.075 27.667-9.532 3.592 2.375 4.422 8.687 5.153 14.254.395 3.007.77 5.846 1.518 7.75 2.413 6.14 7.542 12.797 13.386 17.375 6.418 5.03 13.606 8.524 20.557 11.906 5.637 2.741 11.465 5.574 16.843 9.209 12.507 8.449 18.233 22.794 22.558 37.036 2.403 7.914 3.596 17.198 4.857 27.028 2.92 22.74 6.229 48.515 26.635 60.74 5.127 3.072 10.532 3.882 16.063 2.41 19.199-5.113 36.966-36.786 47.584-55.71 2.517-4.488 4.692-8.364 6.487-11.217 15.026-23.872 36.093-43.227 51.12-55.26 17.1-13.692 25.34-28.994 25.936-48.156.685-21.879-11.05-45.338-28.726-57.786-8.94-6.295-23.301-12.465-40.948-6.109-10.43 3.758-20.24 12.106-29.729 20.177-16.783 14.284-34.139 29.051-56.27 20.29-5.244-2.075-10.1-4.409-14.796-6.667-9.655-4.641-18.774-9.025-30.092-10.711-6.551-.976-16.205-1.933-24.994-.95-2.13.24-4.938 1.276-7.91 2.374-5.242 1.935-10.661 3.936-14.228 2.418-7.674-3.266-10.073-21.743-11.824-35.234-.606-4.661-1.129-8.687-1.755-11.2-1.26-5.06-2.356-10.193-3.416-15.16-2.495-11.682-5.073-23.762-9.897-35.082-2.255-5.29-4.314-10.971-6.306-16.463-8.556-23.598-17.405-48-45.345-55.493-11.498-3.084-22.69-.782-32.366 6.655-13.374 10.28-22.36 29.636-22.36 48.165 0 4.114.446 8.08 1.324 11.786 2.4 10.114 8.217 20.475 13.844 30.495 2.869 5.111 5.836 10.396 8.235 15.475 4.21 8.917 9.23 21.627 9.23 31.54 0 5.954-1.841 10.157-5.476 12.499l-3 12.018-.102.1c-2.43 2.398-3.664 5.484-3.664 9.174M467.5 517.655v.001c0 .605-.009 1.209-.028 1.81-.606 19.48-8.967 35.02-26.313 48.912-14.967 11.985-35.947 31.256-50.898 55.01-1.782 2.83-3.95 6.696-6.462 11.173-11.385 20.296-28.592 50.967-48.2 56.189-5.804 1.547-11.469.698-16.838-2.52-20.825-12.474-24.166-38.506-27.115-61.474-1.256-9.786-2.444-19.03-4.823-26.863-4.27-14.065-9.912-28.221-22.157-36.496-5.32-3.593-11.116-6.412-16.721-9.138-6.999-3.403-14.234-6.922-20.738-12.018-5.976-4.682-11.227-11.501-13.702-17.798-.793-2.02-1.175-4.917-1.579-7.987-.703-5.355-1.5-11.424-4.71-13.547-6.309-4.172-17.532 3.423-26.55 9.527-4.396 2.975-8.193 5.543-10.967 6.512-13.157 4.593-32.365 6.671-45.615.96-8.693-3.744-19.193-17.141-19.193-28.162 0-3.918 1.3-7.211 3.863-9.792l3.031-12.14.174-.107c3.433-2.123 5.175-6.076 5.175-11.752-.001-9.726-4.968-22.286-9.135-31.109-2.383-5.048-5.342-10.317-8.203-15.413-5.66-10.08-11.512-20.505-13.943-30.756-.898-3.783-1.353-7.827-1.353-12.018 0-18.826 9.144-38.503 22.754-48.963 9.932-7.635 21.426-9.996 33.238-6.829 28.445 7.628 37.384 32.28 46.028 56.12 1.987 5.482 4.042 11.148 6.285 16.413 4.862 11.41 7.452 23.538 9.956 35.267 1.059 4.957 2.153 10.084 3.41 15.127.64 2.568 1.166 6.62 1.775 11.313 1.72 13.25 4.077 31.396 11.222 34.438 3.199 1.361 8.664-.657 13.486-2.437 3.031-1.12 5.896-2.176 8.147-2.429 8.896-.996 18.643-.03 25.253.956 11.468 1.707 20.654 6.123 30.379 10.798 4.68 2.25 9.52 4.576 14.73 6.64 21.57 8.538 38.693-6.032 55.251-20.122 9.556-8.132 19.437-16.539 30.04-20.358 18.052-6.502 32.731-.2 41.866 6.233 17.453 12.289 29.18 35.128 29.18 56.829"/>
        <g transform="rotate(-90 471 296)">
            <mask id="t" fill="#fff">
                <use xlink:href="#s"/>
            </mask>
            <path fill="#303030" d="M39.656 62.834c-2.132-3.549-5.392-6.21-8.545-8.783-2.513-2.05-4.885-3.986-6.723-6.328-4.45-5.663-5.192-10.822-6.05-16.795-.25-1.717-.504-3.494-.859-5.393l-.198-1.08C16.187 18.52 14.533 9.547 10.756 5.16 8.121 2.097 4.556.193 1.456.193.217.193-1.55.509-3.038 1.957v1.617C-1.964 2.03-.445 1.198 1.455 1.198c2.814 0 6.084 1.77 8.532 4.616 3.6 4.18 5.223 12.992 6.297 18.823l.2 1.082c.35 1.878.605 3.644.85 5.352.88 6.116 1.64 11.396 6.255 17.27 1.909 2.43 4.435 4.493 6.879 6.487 3.086 2.52 6.276 5.123 8.319 8.522 3.915 6.513 4.07 12.07.521 18.583-4.23 7.762-8.922 7.638-16.544 7.57-.729-.006-1.484-.012-2.267-.012h-.42c-12.616 0-19.46-2.322-23.114-9.433v1.983c4.013 6.271 11.05 8.456 23.115 8.456h.419c.781 0 1.533.006 2.26.012.681.006 1.339.01 1.978.01 6.671 0 11.351-.564 15.463-8.107 3.741-6.865 3.58-12.72-.542-19.578" mask="url(#t)"/>
        </g>
        <g transform="rotate(-90 466 302)">
            <mask id="v" fill="#fff">
                <use xlink:href="#u"/>
            </mask>
            <path fill="#303030" d="M50.856 64.767c-2.143-1.13-4.165-2.195-5.937-3.223-15.692-9.104-18.524-17.49-22.967-34.094C18.542 14.708 13.125.081 1.414.081c-1.43 0-2.926.234-4.476.685v1.049c1.559-.481 3.055-.73 4.476-.73 11.015 0 16.234 14.227 19.551 26.62 4.515 16.876 7.396 25.4 23.436 34.704 1.79 1.039 3.821 2.11 5.973 3.243C62.726 72.16 78.098 80.26 72.758 94.477c-5.535 14.728-27.752 17.935-41.026 19.85l-1.185.17c-4.175.607-9.098 1.227-13.95 1.227-8.784 0-15.225-2.025-19.659-6.171v1.349c4.593 3.911 11.046 5.826 19.659 5.827 4.919 0 9.887-.626 14.099-1.237l1.183-.171c13.499-1.948 36.092-5.208 41.836-20.496 5.65-15.037-10.828-23.719-22.86-30.058" mask="url(#v)"/>
        </g>
        <g transform="rotate(-90 461.5 306)">
            <mask id="x" fill="#fff">
                <use xlink:href="#w"/>
            </mask>
            <path fill="#303030" d="M96.393 74.649c-3.29-.946-6.693-1.924-9.745-3.121-3.528-1.384-7.31-2.696-11.313-4.084-11.293-3.916-22.97-7.966-31.42-14.413C36.013 47.002 31.36 37.139 26.86 27.6 20.169 13.417 13.849.021-2.233.021c-.258 0-.53.02-.791.026v1.004c.262-.008.533-.026.791-.026 15.442 0 21.63 13.116 28.181 27.001 4.553 9.647 9.26 19.623 17.354 25.8 8.58 6.546 20.863 10.806 31.701 14.565 3.994 1.384 7.766 2.693 11.275 4.07 3.097 1.215 6.523 2.199 9.835 3.151 11.966 3.438 24.34 6.993 24.375 22.233.06 27.58-43.26 32.99-69.143 36.22-3.487.436-6.499.812-9.074 1.204l-.45.068c-6.934 1.053-14.79 2.246-22.416 2.246-9.169 0-16.543-1.761-22.43-5.36v1.17c5.959 3.485 13.338 5.194 22.43 5.194 7.703 0 15.6-1.2 22.568-2.258l.45-.069c2.562-.39 5.567-.764 9.047-1.198 26.214-3.273 70.089-8.75 70.026-37.219-.036-15.992-12.78-19.654-25.103-23.195" mask="url(#x)"/>
        </g>
        <g transform="rotate(-90 444 322.5)">
            <mask id="z" fill="#fff">
                <use xlink:href="#y"/>
            </mask>
            <path fill="#303030" d="M113.98 103.4c-5.775-2.213-11.864-4.116-18.31-6.131-20.668-6.46-42.038-13.14-54.035-30.547C35.2 57.382 26.34 43.446 20.68 30.081 20.56 29.798 8.78 2.73-3.012.449v3.099c7.817 2.159 17.337 19.253 20.92 27.71 5.759 13.599 14.734 27.724 21.25 37.178 12.586 18.263 34.46 25.1 55.615 31.713 6.4 2 12.445 3.89 18.131 6.068 14.14 5.416 28.902 17.195 23.974 32.565-4.59 14.314-25.16 25.099-31.354 28.063-11.095 5.31-24.049 8.509-36.574 11.602-3.334.823-6.78 1.673-10.111 2.546-12.53 3.282-31.195 7.348-48.585 4.8-3.79-.557-8.4-1.44-13.266-2.837v3.128a105.697 105.697 0 0 0 12.832 2.693c3.97.582 7.993.831 11.995.831 14.068 0 27.832-3.09 37.784-5.697a756.28 756.28 0 0 1 10.072-2.536c12.672-3.128 25.778-6.364 37.15-11.808 8.293-3.969 28.101-14.821 32.923-29.862 5.572-17.378-10.396-30.419-25.764-36.305" mask="url(#z)"/>
        </g>
        <g transform="rotate(-90 388 379.5)">
            <mask id="B" fill="#fff">
                <use xlink:href="#A"/>
            </mask>
            <path fill="#303030" d="M142.423 202.556c-1.93-7.696-10.376-13.753-18.543-19.61-4.176-2.995-8.122-5.823-10.75-8.6-18.254-19.285-27.912-47.676-36.434-72.724-1.186-3.488-2.353-6.92-3.522-10.264C67.992 76.53 61.224 60.95 52.48 43.725c-9.132-17.992-10.45-29.368-9.587-47.29.246.053.476.04.656.011l-.495-2.988c.648-.107 1.201.301 1.348.637l-.044-.115c-.135-.37-.492-1.351-1.58-1.518-1.248-.195-2.103.936-2.517 1.477l-.285.372-.025.469c-1.035 19.354.14 31.213 9.837 50.318 8.68 17.103 15.398 32.562 20.533 47.26 1.167 3.337 2.33 6.76 3.515 10.242 8.621 25.341 18.393 54.065 37.102 73.83 2.827 2.987 6.886 5.898 11.184 8.98 7.363 5.28 15.71 11.266 17.37 17.884.571 2.283.266 3.963-.934 5.135-4.742 4.626-22.079 1.872-35.485-1.891-22.737-6.383-53.115-20.713-68.709-52.735-2.309-4.744-3.637-9.962-4.92-15.008-1.424-5.592-2.896-11.373-5.71-16.614-4.581-8.532-10.779-17.14-16.235-24.438-1.818-2.432-3.775-4.836-5.665-7.16-1.629-2.002-3.276-4.03-4.856-6.098v4.899a494.733 494.733 0 0 0 2.513 3.112c1.873 2.302 3.81 4.682 5.59 7.064 5.391 7.206 11.506 15.7 15.994 24.057 2.639 4.915 4 10.263 5.44 15.927 1.322 5.193 2.689 10.564 5.135 15.586 16.085 33.033 47.274 47.774 70.608 54.323 5.924 1.664 17.191 4.44 26.34 4.44 5.123 0 9.582-.87 12.067-3.294 2.012-1.964 2.603-4.669 1.757-8.043" mask="url(#B)"/>
        </g>
        <g transform="rotate(-90 388 379)">
            <mask id="D" fill="#fff">
                <use xlink:href="#C"/>
            </mask>
            <path fill="#303030" d="M123.218 193.901c-1.83-3.009-6.118-5.045-10.265-7.014-3.347-1.589-6.808-3.233-8.724-5.303-4.262-4.609-6.653-10.604-8.965-16.4-.74-1.853-1.505-3.77-2.312-5.588l-1.213-2.73c-12.37-27.864-25.16-56.676-39.145-84.503-2.367-4.709-5.17-9.513-7.88-14.158-4.972-8.52-10.11-17.328-12.985-26.2-1.052-3.25-8.95-28.25-7.029-40.044h-1c-1.819 11.854 5.362 35.074 7.07 40.353 2.907 8.975 8.074 17.831 13.072 26.397 2.704 4.63 5.498 9.421 7.85 14.102 13.974 27.806 26.761 56.606 39.126 84.459l1.212 2.73c.8 1.802 1.56 3.709 2.297 5.552 2.346 5.883 4.772 11.966 9.162 16.711 2.047 2.213 5.598 3.899 9.032 5.53 4.012 1.905 8.162 3.876 9.835 6.628 1.302 2.14 1.599 3.652.887 4.496-1.082 1.283-6.549 3.123-33.89-7.514l-.433-.168a565.725 565.725 0 0 0-4.81-1.835c-11.987-4.536-22.34-8.452-31.57-18.617l-.728-.802c-5.07-5.575-10.818-11.894-13.802-18.464-1.544-3.4-2.315-7.115-3.062-10.71-.73-3.512-1.484-7.146-2.958-10.58-1.882-4.385-4.452-8.41-6.938-12.3-2.736-4.283-5.565-8.711-7.44-13.59-1.134-2.945-2.123-6.008-3.08-8.97-1.731-5.354-3.52-10.888-6.27-16.179-3.17-6.095-6.89-12.113-11.286-18.246v1.755C.982 68.39 4.42 73.99 7.366 79.653c2.712 5.216 4.488 10.71 6.205 16.025.963 2.974 1.957 6.05 3.1 9.021 1.911 4.973 4.768 9.445 7.53 13.77 2.465 3.857 5.013 7.846 6.862 12.155 1.434 3.343 2.178 6.925 2.898 10.39.758 3.647 1.541 7.419 3.131 10.92 3.049 6.714 8.853 13.095 13.973 18.725l.727.8c9.394 10.345 19.852 14.3 31.96 18.882 1.577.596 3.178 1.201 4.8 1.832l.434.168c14.699 5.718 24.915 8.59 30.525 8.59 2.232 0 3.736-.454 4.505-1.366 1.02-1.21.752-3.115-.798-5.664" mask="url(#D)"/>
        </g>
        <g transform="rotate(-90 388 379.5)">
            <mask id="F" fill="#fff">
                <use xlink:href="#E"/>
            </mask>
            <path fill="#303030" d="M93.554 183.78c-1.378-3.158-2.83-6.237-4.234-9.216-3.079-6.532-5.987-12.701-8.2-19.664-9.498-29.896-21.652-55.581-38.245-80.833-1.652-2.513-3.372-5.069-5.116-7.66-7.476-11.106-15.206-22.59-20.106-34.427-5.15-12.443-6.535-30.553-6.906-40.023h-1.01c.371 9.525 1.768 27.808 6.982 40.406 4.937 11.93 12.697 23.457 20.2 34.604 1.742 2.587 3.46 5.139 5.109 7.65 16.543 25.172 28.659 50.779 38.13 80.586 2.231 7.026 5.153 13.225 8.247 19.788 1.355 2.877 2.757 5.848 4.09 8.888-1.4 1.421-3.202 1.898-5.493 1.463-16.445-3.14-50.745-53.313-54.208-62.857-2.265-6.238-4.025-12.666-5.726-18.883-2.58-9.417-5.247-19.155-9.682-28.172-3.696-7.51-8.383-14.75-12.917-21.754-2.525-3.901-5.092-7.88-7.502-11.917v1.966c2.16 3.552 4.423 7.053 6.652 10.495 4.518 6.98 9.19 14.195 12.858 21.651 4.394 8.932 7.048 18.623 9.615 27.996 1.707 6.235 3.473 12.683 5.75 18.96 2.925 8.058 37.095 60.09 54.97 63.502a9.302 9.302 0 0 0 1.734.173c1.973 0 3.624-.732 4.922-2.188l.214-.24-.128-.294z" mask="url(#F)"/>
        </g>
        <g transform="rotate(-90 359 350)">
            <mask id="H" fill="#fff">
                <use xlink:href="#G"/>
            </mask>
            <path fill="#303030" d="M379.756-8.045c-4.69 19.714-19.765 41.083-42.37 59.697-24.35 20.053-52.616 32.886-75.605 34.33-8.988.565-18.117-.421-26.948-1.375-24.276-2.62-47.21-5.097-60.576 25.404-7.865 17.946-7.943 34.576-.272 57.4.193.574.397 1.167.606 1.777 2.426 7.08 5.446 15.89 1.828 22.126-2.724 4.696-7.895 6.466-13.368 8.341-2.482.85-5.048 1.73-7.412 2.909-15.105 7.539-21.03 19.778-27.303 32.737-1.355 2.799-2.756 5.694-4.277 8.61-3.236 6.206-17.652 25.842-27.478 26.068-2.623.05-4.692-1.315-6.372-4.204-1.61-2.768 1.596-11.265 3.512-16.341.868-2.303 1.618-4.291 1.97-5.688 1.613-6.436 2.1-13.089 2.57-19.524.144-1.952.287-3.91.461-5.873.826-9.313.53-15.712-3.382-24.834-.393-.918-.797-1.831-1.2-2.742-2.693-6.088-5.235-11.838-4.69-18.695.433-5.426 2.977-9.087 5.67-12.962 1.57-2.261 3.194-4.598 4.521-7.408 3.102-6.57 2.346-11.86 1.471-17.985-.235-1.645-.478-3.346-.656-5.154-1.356-13.723-2.293-33.784 5.19-49.482 3.899-8.18 15.096-15.36 25.923-22.305 18.445-11.828 37.517-24.059 27.072-43.42-8.204-15.207-22.54-21.016-42.62-17.259-16.653 3.115-34.179 12.11-46.977 18.68l-1.891.97c-.965.494-1.917.99-2.858 1.479-12.09 6.29-21.637 11.259-32.35.771-2.252-2.205-4.531-5.512-6.944-9.013C20.196 2.016 14.906-5.657 7.724-8.045H.291l.47 2.488c9.334-1.769 15.934 7.812 21.757 16.26 2.497 3.624 4.858 7.047 7.318 9.456 12.27 12.014 23.724 6.057 35.85-.25.936-.487 1.882-.98 2.842-1.471l1.893-.972c25.486-13.082 68.142-34.976 85.566-2.672 9.116 16.9-7.963 27.853-26.046 39.45-11.698 7.501-22.747 14.588-27.016 23.543-7.72 16.198-6.98 35.806-5.471 51.078.186 1.874.433 3.608.672 5.284.84 5.878 1.502 10.52-1.212 16.271-1.22 2.582-2.771 4.816-4.271 6.975-2.803 4.033-5.702 8.205-6.198 14.443-.607 7.619 2.21 13.991 4.936 20.155.398.9.798 1.804 1.187 2.712 3.68 8.582 3.948 14.376 3.15 23.378-.176 1.978-.32 3.952-.464 5.918-.484 6.598-.94 12.829-2.49 19.011-.308 1.228-1.029 3.141-1.865 5.356-2.508 6.646-5.627 14.916-3.298 18.923 2.203 3.787 5.165 5.707 8.808 5.707.08 0 .16 0 .241-.003 11.877-.273 27.067-21.903 30.084-27.688 1.54-2.957 2.952-5.872 4.317-8.692 6.304-13.024 11.75-24.273 25.935-31.351 2.184-1.09 4.654-1.937 7.044-2.755 5.755-1.972 11.708-4.01 14.998-9.682 4.308-7.426.902-17.362-1.585-24.618-.207-.603-.408-1.19-.6-1.76-7.406-22.038-7.356-38.04.177-55.227C189.497 82.748 210.358 85 234.51 87.607c8.954.967 18.218 1.968 27.46 1.386 45.448-2.854 110.335-50.175 120.895-97.038h-3.11z" mask="url(#H)"/>
        </g>
        <g transform="matrix(0 -1 1 0 9 612)">
            <mask id="J" fill="#fff">
                <use xlink:href="#I"/>
            </mask>
            <path fill="#303030" d="M263.447-8.061c-.895 1.866-1.77 3.886-2.662 5.953-1.51 3.497-3.073 7.113-4.765 9.908-5.327 8.803-12.25 16.484-18.318 22.837-11.583 12.123-21.61 21.976-32.894 30.655-13.242 10.186-28.002 15.025-45.092 14.787-4.896-.067-9.84-.53-14.623-.978-11.492-1.075-23.374-2.187-34.922 2.266-38.7 14.923-45.209 38.16-43.679 75.819.138 3.41.617 6.78 1.08 10.037.695 4.897 1.414 9.962.938 15.087-.85 9.127-2.052 9.37-7.826 10.542-1.403.284-2.992.607-4.902 1.113-11.501 3.043-17.286 13.096-22.88 22.818-1.713 2.976-3.484 6.052-5.377 8.84-2.934 4.318-5.463 9.688-8.143 15.373-4.358 9.252-8.861 18.807-15.364 24.02-2.123-11.473.147-21.698 2.547-32.508.97-4.367 1.973-8.88 2.698-13.575 1.543-9.958-1.23-17.937-3.91-25.654-1.96-5.64-3.986-11.472-4.315-18.054-.374-7.488 3.118-14.072 6.814-21.04 3.173-5.981 6.452-12.165 7.241-19.132 2.215-19.585 8.69-35.408 19.243-47.026 8.509-9.366 18.973-16.68 29.093-23.754 8.97-6.267 18.242-12.748 26.094-20.621 13.598-13.638 16.509-30.065 17.121-47.713h-1.01c-.612 17.428-3.492 33.63-16.825 47.001-7.788 7.81-17.024 14.266-25.956 20.508C52.687 66.552 42.175 73.9 33.591 83.35c-10.7 11.778-17.26 27.79-19.5 47.59-.767 6.776-4 12.875-7.129 18.771C3.2 156.807-.355 163.51.032 171.275c.336 6.726 2.385 12.627 4.369 18.335 2.761 7.95 5.37 15.458 3.866 25.17-.721 4.66-1.72 9.159-2.685 13.509-2.48 11.168-4.822 21.715-2.398 33.727l.158.777.636-.473c7.054-5.237 11.762-15.231 16.316-24.894 2.662-5.648 5.175-10.984 8.065-15.236 1.915-2.82 3.695-5.913 5.417-8.904 5.49-9.544 11.169-19.412 22.262-22.347 1.884-.498 3.458-.818 4.847-1.1 6.237-1.264 7.743-1.925 8.628-11.436.487-5.242-.24-10.366-.944-15.32-.459-3.234-.934-6.579-1.07-9.94-1.51-37.19 4.9-60.132 43.035-74.836 11.329-4.368 22.567-3.315 34.464-2.202 4.803.45 9.768.914 14.705.981 17.306.235 32.29-4.667 45.718-14.995 11.337-8.718 21.394-18.601 33.01-30.759 6.106-6.391 13.073-14.124 18.45-23.01 1.728-2.854 3.305-6.502 4.829-10.03.933-2.16 1.88-4.346 2.862-6.353h-1.125z" mask="url(#J)"/>
        </g>
        <g transform="rotate(-90 304 295)">
            <mask id="L" fill="#fff">
                <use xlink:href="#K"/>
            </mask>
            <path fill="#303030" d="M215.577-8.034c-3.77 8.722-7.687 17.695-12.841 25.042-10.854 15.476-27.45 23.202-42.252 28.717-4.32 1.609-8.74 3.315-13.016 4.966-9.353 3.611-19.025 7.345-28.284 10.313-3.704 1.187-7.37 2.104-10.917 2.991-8.828 2.206-17.167 4.292-25.282 10.164-24.995 18.09-38.692 47.19-40.71 86.494-.647 12.587-6.208 17.647-12.648 23.508-3.526 3.209-7.172 6.527-10.43 11.386-2.57 3.834-4.239 9.907-6.006 16.336-2.744 9.983-5.578 20.294-11.99 23.222.488-8.638 2.073-17.8 3.607-26.668 1.23-7.114 2.501-14.47 3.223-21.599.528-5.206.916-10.646 1.29-15.907.812-11.385 1.651-23.156 3.962-34.027 7.4-34.81 27.867-51.8 55.973-72.002 27.847-20.015 46.057-39.977 48.426-72.936h-1.013c-2.383 32.551-20.428 52.303-48.001 72.121-28.292 20.335-48.895 37.445-56.37 72.609-2.326 10.938-3.167 22.746-3.98 34.163-.375 5.254-.762 10.687-1.288 15.879-.719 7.094-1.987 14.432-3.214 21.529C2.229 217.434.59 226.914.154 235.843l-.037.75.709-.253c7.413-2.643 10.425-13.597 13.336-24.192 1.745-6.348 3.393-12.344 5.873-16.043 3.188-4.758 6.788-8.034 10.27-11.202 6.605-6.01 12.309-11.2 12.976-24.2 2-38.984 15.559-67.83 40.296-85.73 7.957-5.76 16.205-7.822 24.935-10.005 3.563-.89 7.246-1.81 10.981-3.008 9.286-2.977 18.972-6.717 28.338-10.332 4.274-1.65 8.69-3.355 13.005-4.963 14.947-5.57 31.712-13.38 42.726-29.082 5.29-7.543 9.269-16.724 13.113-25.617h-1.098z" mask="url(#L)"/>
        </g>
        <path fill="#303030" d="M335.438 608.962c5.45.388 8.682-9.531 11.292-17.534 1.266-3.884 2.462-7.553 3.771-9.693 4.035-6.597 6.508-10.767 6.508-13.255 0-3.257-4.788-4.018-15.278-5.687-1.661-.265-3.532-.645-5.512-1.047-5.937-1.208-13.326-2.711-15.563-.811-1.725 1.46-.143 5.091 4.436 10.716.758.932 1.48 1.808 2.162 2.635 7.33 8.901 10.439 12.678 10.092 26.104l-.026.148-1.938 6.002c.08.4.077.906.053 1.425-.017.346-.03.713.003.997M358 568.48c0 2.776-2.407 6.846-6.66 13.8-1.246 2.038-2.424 5.65-3.67 9.475-2.927 8.975-6.245 19.149-12.723 18.18l-.326-.048-.082-.329c-.117-.463-.122-1.043-.094-1.643.023-.479.026-.942-.057-1.27l-.037-.147 2.006-6.213c.348-12.96-2.49-16.392-9.858-25.335-.684-.83-1.406-1.707-2.166-2.641-5.204-6.391-6.511-10.299-4.307-12.165 2.599-2.206 9.608-.782 16.384.598 1.97.4 3.831.78 5.471 1.04 11.066 1.759 16.119 2.564 16.119 6.698M262.48 80.42c0 6.675 1.238 12.087 3.677 16.084 4.578 7.5 17.106 17.971 27.112 17.986 4.336.007 7.745-1.959 10.133-5.846 1.425-2.318 2.118-4.715 2.118-7.33 0-5.979-3.682-11.975-7.244-17.775-2.827-4.605-5.498-8.955-6.287-13.15-.128-.683-.19-1.462-.19-2.378 0-2.897.64-6.664 1.32-10.652.786-4.606 1.598-9.369 1.598-13.573 0-4.466-.945-7.505-2.888-9.29-1.81-1.662-4.478-2.276-8.153-1.87L270.12 48.59c-3.807 7.468-7.64 20.188-7.64 31.83m44.02 20.893v.001c0 2.811-.743 5.385-2.269 7.87-2.58 4.198-6.27 6.324-10.964 6.316-10.34-.015-23.241-10.762-27.94-18.457-2.54-4.162-3.827-9.754-3.827-16.623 0-11.842 3.907-24.782 7.78-32.353l.065-.097 13.844-16.304.188-.023c4.008-.474 7.071.232 9.105 2.1 2.162 1.987 3.215 5.272 3.215 10.043 0 4.293-.82 9.099-1.612 13.748-.671 3.943-1.306 7.668-1.306 10.477 0 .839.058 1.575.173 2.187.753 4.007 3.376 8.278 6.153 12.801 3.636 5.92 7.395 12.043 7.395 18.314"/>
        <path fill="#303030" d="M258.498 95.073c2.653 9.066 10.343 20.362 18.656 23.617 8.55 3.348 21.312 4.464 29.127-.998 5.329-3.725 7.276-9.87 5.678-17.975-1.554-7.896-6.208-15.133-10.314-21.52l-1.003-1.562c-3.223-5.042-4.598-9.306-4.598-14.255 0-3.398.671-7.07 1.398-10.53.166-.787.354-1.61.547-2.459.718-3.148 1.532-6.716 1.533-10.04v-.001c0-4.414-1.47-7.587-4.493-9.7-5.816-4.065-15.305-1.75-20.185 2.873-7.613 7.21-10.493 17.216-13.278 26.89-1.206 4.19-2.452 8.518-4.06 12.462l.992 23.198zm55.002 9.849c0 5.944-2.239 10.522-6.653 13.607-8.114 5.67-21.266 4.55-30.052 1.11-8.943-3.502-16.604-15.153-19.272-24.337l-.02-.123-1.003-23.486.043-.104c1.607-3.92 2.8-8.07 4.064-12.461 2.823-9.807 5.742-19.947 13.557-27.35 5.265-4.986 15.133-7.368 21.43-2.966 3.315 2.317 4.927 5.765 4.927 10.538-.001 3.44-.83 7.07-1.56 10.27-.192.844-.378 1.661-.541 2.442-.715 3.406-1.377 7.015-1.377 10.318 0 4.737 1.327 8.835 4.436 13.7l1.002 1.56c4.156 6.464 8.866 13.789 10.457 21.877.373 1.893.562 3.712.562 5.405z"/>
        <path fill="#303030" d="M249.517 84.69c0 6.21.914 12.564 2.715 18.89 6.623 23.248 28.903 39.016 51.83 36.68 15.062-1.536 26.42-13.768 26.42-28.452 0-5.227-1.534-10.433-4.436-15.055-3.265-5.199-6.821-10.619-10.26-15.862a2891.696 2891.696 0 0 1-4.088-6.246c-.78-1.198-1.555-2.318-2.298-3.395-3.5-5.06-6.486-9.398-6.304-16.646.089-3.218.743-6.37 1.375-9.42.678-3.27 1.379-6.651 1.379-10.109 0-1.096-.067-2.13-.206-3.163-.444-3.312-3.479-8.233-7.606-10.41-1.57-.828-3.957-1.56-6.412-.338l-.2.052-9.918.494c-1.202 1.705-3.347 2.984-5.426 4.22-1.212.722-2.356 1.404-3.298 2.15-2 1.585-4.907 4.041-7.033 7.077-2.825 4.039-4.796 8.862-6.702 13.528-.848 2.076-1.725 4.222-2.663 6.258-4.622 10.044-6.869 19.774-6.869 29.748m81.983 27.117c0 15.206-11.752 27.87-27.335 29.458-23.41 2.387-46.156-13.696-52.911-37.41-1.827-6.415-2.754-12.864-2.754-19.165 0-10.122 2.277-19.99 6.962-30.17.927-2.015 1.801-4.152 2.645-6.218 1.927-4.716 3.92-9.593 6.81-13.724 2.201-3.145 5.183-5.667 7.233-7.292.996-.786 2.223-1.518 3.41-2.225 2.065-1.23 4.201-2.503 5.239-4.117l.141-.22 10.328-.514c2.226-1.068 4.728-.931 7.246.397 4.413 2.327 7.661 7.61 8.137 11.17.146 1.078.216 2.157.216 3.296v.001c0 3.562-.712 6.995-1.4 10.314-.623 3.006-1.268 6.115-1.354 9.243-.183 6.921 2.584 10.925 6.124 16.045.75 1.085 1.53 2.211 2.315 3.418 1.342 2.06 2.71 4.146 4.086 6.243 3.442 5.246 7 10.672 10.27 15.88 3.004 4.781 4.592 10.173 4.592 15.59"/>
        <path fill="#303030" d="M243.501 101.056c0 1.682.006 3.363.023 5.045.051 4.977 1.623 8.23 3.614 12.352.323.67.657 1.36.994 2.08.842 1.796 1.628 3.547 2.394 5.252 4.193 9.337 7.813 17.401 16.71 23.865 6.277 4.56 14.128 6.814 21.72 8.993 3.615 1.039 7.353 2.111 10.831 3.414 15.139 5.668 26.307 5.909 33.196.712 10.005-7.545 15.516-19.985 15.516-35.022 0-14.465-5.263-29.748-13.735-39.885-2.167-2.593-4.932-4.33-7.607-6.012-2.028-1.274-4.124-2.593-5.895-4.255-2.426-2.279-4.338-5.99-6.024-9.266a132.34 132.34 0 0 0-1.183-2.262c-1.81-3.34-2.617-6.788-2.617-11.18 0-2.01.158-4.005.326-6.12.16-2.021.326-4.112.352-6.288l.004-.604c0-4.953-.798-21.19-11.064-22.113l-8.466-1.005c-1.855.214-3.648.067-5.383-.073-2.226-.18-4.327-.352-6.487.193-4.385 1.108-6.36 3.237-9.35 6.459l-.318.341a347.023 347.023 0 0 1-2.877 3.049c-4.592 4.83-8.22 8.644-11.566 15.03-3.069 5.859-7.005 13.6-10.23 21.532-2.647 6.508-2.868 13.816-2.868 20.744l.013 4.926c0 1.683-.006 3.367-.012 5.05-.005 1.684-.011 3.366-.011 5.048m105.999 26.69c0 15.364-5.654 28.09-15.917 35.832-7.18 5.415-18.666 5.222-34.143-.574-3.443-1.29-7.162-2.357-10.757-3.39-7.677-2.202-15.612-4.48-22.031-9.145-9.115-6.621-12.786-14.8-17.038-24.267-.763-1.7-1.548-3.447-2.387-5.238-.335-.717-.667-1.402-.99-2.07-1.964-4.065-3.661-7.578-3.714-12.783-.034-3.368-.022-6.738-.012-10.106.006-1.682.012-3.365.012-5.047l-.013-4.926c0-7.029.227-14.448 2.943-21.127 3.241-7.972 7.191-15.742 10.27-21.62 3.412-6.512 7.083-10.372 11.73-15.258.92-.967 1.875-1.971 2.868-3.04l.317-.342c3-3.232 5.168-5.568 9.84-6.749 2.318-.584 4.6-.399 6.809-.219 1.705.139 3.468.282 5.244.07l.059-.007 8.57 1.017c11.096.999 11.961 17.946 11.961 23.118l-.004.616c-.026 2.21-.193 4.318-.355 6.357-.165 2.093-.323 4.07-.323 6.04 0 4.212.77 7.511 2.494 10.696.384.708.78 1.479 1.193 2.28 1.65 3.203 3.518 6.831 5.818 8.99 1.701 1.598 3.664 2.832 5.744 4.139 2.74 1.722 5.573 3.504 7.841 6.217 8.618 10.312 13.971 25.844 13.971 40.537"/>
        <g transform="rotate(-90 249 240)">
            <mask id="N" fill="#fff">
                <use xlink:href="#M"/>
            </mask>
            <path fill="#303030" d="M17.11 337.443c8.988 9.325 14.803 19.845 20.958 30.982 1.873 3.389 3.81 6.895 5.829 10.332 4.284 7.294 9.318 13.823 14.186 20.137 6.575 8.527 13.373 17.343 18.24 28.012l.122.266c7.34 16.088 15.66 34.321 20.623 51.598.346 1.204.715 2.474 1.101 3.8 2.006 6.89 4.509 15.498 6.427 24.45h1.034c-1.929-9.06-4.46-17.764-6.487-24.728-.386-1.325-.755-2.594-1.101-3.797-4.984-17.348-13.32-35.617-20.674-51.736l-.12-.266c-4.917-10.773-11.75-19.636-18.36-28.209-4.849-6.289-9.863-12.793-14.116-20.033-2.01-3.426-3.945-6.924-5.815-10.307-6.188-11.197-12.033-21.774-21.114-31.195l-.931-.966C5.12 323.567-4.192 313.915 4.48 296.4c1.304-2.634 2.72-5.36 4.088-7.994 6.67-12.842 13.567-26.118 14.23-40.395.2-4.283-.363-8.662-.908-12.896-1.52-11.822-2.833-22.031 12.676-25.57 12.065-2.754 24.823-3.994 37.161-5.193 4.092-.398 8.323-.81 12.434-1.268 29.694-3.314 67.026-11.215 92.35-43.186 9.966-12.581 17.935-24.314 14.514-40.525-3.55-16.825-14.038-32.805-21.616-43.36-11.777-16.4-13.24-26.43-6.524-44.718 5.042-13.726 11.657-25.869 19.648-39.327h-1.175c-7.883 13.302-14.419 25.355-19.424 38.984-6.776 18.446-5.222 29.11 6.649 45.643 7.527 10.483 17.938 26.343 21.45 42.984 3.331 15.787-4.514 27.319-14.32 39.698-25.09 31.68-62.168 39.519-91.665 42.809-4.105.458-8.331.868-12.42 1.266-12.37 1.203-25.161 2.447-37.29 5.215-16.402 3.742-14.969 14.882-13.452 26.676.538 4.19 1.096 8.525.9 12.723-.653 14.057-7.499 27.235-14.119 39.98-1.37 2.64-2.788 5.37-4.097 8.014-8.983 18.143.545 28.016 12.608 40.517l.932.966z" mask="url(#N)"/>
        </g>
        <g transform="rotate(-90 236.5 227)">
            <mask id="P" fill="#fff">
                <use xlink:href="#O"/>
            </mask>
            <path fill="#303030" d="M15.145 340.846c2.89 5.222 5.619 10.155 7.823 14.785 8.352 17.552 18.783 34.084 28.872 50.073 11.227 17.79 22.836 36.188 31.667 56.115 4.567 10.305 10.3 23.944 14.123 38.057.464 1.715 1.122 3.848 1.884 6.318l.254.826h1.053l-.343-1.12c-.759-2.462-1.414-4.587-1.874-6.285-3.84-14.18-9.593-27.863-14.175-38.201-8.86-19.994-20.488-38.423-31.734-56.245-10.074-15.963-20.49-32.47-28.815-49.968-2.217-4.658-4.954-9.604-7.852-14.839-5.832-10.539-11.863-21.436-14.329-31.251-2.64-10.508 2.883-25.678 7.322-37.867 1.456-3.996 2.83-7.769 3.815-11.065 6.584-22.034 15.874-34.415 27.611-36.8 10.933-2.22 23.187-2.047 35.033-1.88 6.385.092 12.989.186 19.134-.118 37.872-1.861 67.525-22.639 79.323-55.581 8.49-23.706-2.694-47.234-13.511-69.99-3.585-7.541-6.971-14.663-9.635-21.742-6.11-16.244-7.22-33.315-3.044-46.835 2.55-8.26 10.78-29.378 17.832-35.265h-1.478c-7.59 7.364-15.346 28.585-17.317 34.97-4.24 13.728-3.124 31.034 3.063 47.482 2.678 7.118 6.072 14.26 9.667 21.82 10.73 22.57 21.824 45.909 13.473 69.223-11.656 32.545-40.973 53.075-78.422 54.915-6.117.302-12.41.212-19.07.118-11.904-.168-24.21-.342-35.249 1.9-12.13 2.464-21.677 15.08-28.377 37.497-.977 3.267-2.346 7.027-3.796 11.009C3.587 283.22-1.996 298.549.72 309.354c2.5 9.941 8.562 20.897 14.425 31.492" mask="url(#P)"/>
        </g>
        <g transform="rotate(-90 547.5 219.5)">
            <mask id="R" fill="#fff">
                <use xlink:href="#Q"/>
            </mask>
            <path fill="#303030" d="M40.107 3.73c16.016 4.938 27.068 14.752 38.846 26.121 12.109 11.689 26.523 20.513 40.463 29.046 12.75 7.804 25.933 15.874 37.364 26.132 7.38 6.625 13.041 15.167 18.516 23.429 5.067 7.647 10.306 15.554 16.91 21.95 13.787 13.353 33.697 21.312 53.297 21.311h.2c2.216.004 4.552.067 6.813.138 6.232.199 12.678.402 18.47-.91 5.282-1.196 9.934-3.89 14.43-6.494 2.843-1.646 5.782-3.348 8.841-4.647 15.808-6.714 29.918-3.793 41.933 8.682 10.776 11.187 18.445 25.533 25.86 39.404l.335.623h1.143l-.59-1.099c-7.448-13.932-15.15-28.339-26.022-39.627-12.337-12.808-26.82-15.805-43.053-8.91-3.116 1.323-6.082 3.04-8.95 4.7-4.432 2.567-9.016 5.22-14.148 6.385-5.666 1.282-12.046 1.08-18.217.887-2.18-.07-4.433-.14-6.584-.14a35.014 35.014 0 0 0-.46 0c-19.346 0-38.996-7.853-52.598-21.029-6.524-6.319-11.733-14.18-16.771-21.782-5.51-8.314-11.207-16.91-18.682-23.62-11.501-10.32-24.725-18.416-37.512-26.243-13.893-8.505-28.26-17.3-40.29-28.913-11.873-11.46-23.02-21.353-39.247-26.357C28.205-.996 8.257-.363-3.021 6.153v1.172C7.901.655 27.92-.027 40.107 3.73" mask="url(#R)"/>
        </g>
        <g transform="rotate(-90 552 215.5)">
            <mask id="T" fill="#fff">
                <use xlink:href="#S"/>
            </mask>
            <path fill="#303030" d="M40.662 4.186C51.216 7.04 60.322 17.73 68.357 27.163c2.025 2.377 3.937 4.622 5.794 6.648 10.548 11.508 24.015 18 37.04 24.279 15.031 7.247 29.23 14.092 39.63 28.031 5.597 7.502 9.52 16.163 13.315 24.538 3 6.62 6.1 13.466 10.022 19.743 12.308 19.706 31.713 25.795 49.071 29.15 5.477 1.06 10.806 1.625 15.962 2.17 10.262 1.087 19.956 2.114 29.738 6.815 7.943 3.817 14.886 7.932 21.052 12.506h4.942c-7.085-5.677-15.189-10.669-24.688-15.234-10.253-4.928-20.198-5.98-30.727-7.096-5.092-.54-10.357-1.096-15.707-2.13-17.561-3.396-35.42-9.113-47.082-27.787-3.814-6.107-6.873-12.858-9.832-19.388-3.861-8.522-7.854-17.334-13.647-25.098-10.842-14.534-26.042-21.86-40.74-28.948-12.767-6.154-25.969-12.518-36.124-23.597-1.82-1.987-3.716-4.21-5.721-6.566-8.32-9.768-17.749-20.837-29.206-23.934-10.15-2.743-38.425-.501-44.47 10.97v.933l2.397 1.02C3.535 4.382 30.281 1.379 40.662 4.187" mask="url(#T)"/>
        </g>
        <g transform="rotate(-90 556 210)">
            <mask id="V" fill="#fff">
                <use xlink:href="#U"/>
            </mask>
            <path fill="#303030" d="M38.094 2.425c6.862 3.28 11.678 10.395 16.336 17.277 4.284 6.33 8.715 12.876 14.821 16.72 7.12 4.483 14.618 8.409 21.867 12.205 21.384 11.198 41.582 21.775 52.753 45.584 2.824 6.019 5.057 11.929 7.215 17.645 5.561 14.723 10.813 28.63 24.908 40.525 6.143 5.184 12.908 9.605 19.45 13.88a689.494 689.494 0 0 1 5.673 3.739h1.8a553.432 553.432 0 0 0-6.918-4.575c-6.518-4.26-13.258-8.662-19.351-13.806-13.896-11.727-19.104-25.516-24.618-40.114-2.165-5.734-4.405-11.663-7.245-17.716-11.316-24.115-31.658-34.767-53.196-46.046-7.234-3.788-14.713-7.704-21.799-12.165-5.927-3.732-10.298-10.19-14.523-16.433-4.733-6.993-9.627-14.223-16.736-17.62-6.019-2.878-24.979.804-35.922 4.71-2.397.856-4.276 1.669-5.632 2.434V9.84c1.085-.675 2.904-1.57 5.974-2.665C13.473 3.42 32.394-.298 38.094 2.425" mask="url(#V)"/>
        </g>
        <g transform="rotate(-90 613.5 154)">
            <mask id="X" fill="#fff">
                <use xlink:href="#W"/>
            </mask>
            <path fill="#303030" d="M2.56 3.833c2.971-2.505 6.901-3.3 11.674-2.366 8.079 1.58 10.587 9.177 13.242 17.219 1.766 5.35 3.593 10.883 7.234 14.421 2.729 2.651 6.975 4.997 11.47 7.483 8.198 4.531 16.643 9.216 17.695 16.41h1.028c-1.053-7.771-10.141-12.815-18.218-17.28-4.434-2.451-8.622-4.766-11.253-7.322-3.465-3.367-5.253-8.782-6.983-14.019C25.822 10.416 23.102 2.182 14.437.486 9.334-.511 5.115.359 1.892 3.076c-2.244 1.891-3.835 4.55-4.964 7.555v3.387C-2.012 9.929-.27 6.219 2.561 3.833" mask="url(#X)"/>
        </g>
        <g transform="rotate(-90 605 162)">
            <mask id="Z" fill="#fff">
                <use xlink:href="#Y"/>
            </mask>
            <path fill="#303030" d="M17.167 2.214c9.216 4.191 13.157 13.1 16.967 21.716 2.37 5.357 4.819 10.894 8.508 15.21 5.235 6.123 13.222 9.758 20.944 13.274 6.55 2.982 13.323 6.066 18.608 10.679 3.895 3.401 6.501 7.158 7.687 10.98h1.047c-1.198-4.106-3.934-8.13-8.075-11.747-5.396-4.71-12.237-7.825-18.854-10.836-7.974-3.632-15.507-7.06-20.595-13.013-3.592-4.203-6.012-9.67-8.35-14.96-3.889-8.789-7.909-17.879-17.474-22.229C13.062-.765 6.425 1.196-.176 6.536a38.58 38.58 0 0 0-2.84 2.554v1.417c1.057-1.1 2.22-2.17 3.469-3.18C5.318 3.394 12.259-.017 17.167 2.215" mask="url(#Z)"/>
        </g>
        <g transform="rotate(-90 597.5 168.5)">
            <mask id="ab" fill="#fff">
                <use xlink:href="#aa"/>
            </mask>
            <path fill="#303030" d="M25.053 3.66c6.38 3.845 9.582 11.735 12.971 20.088 3.224 7.944 6.556 16.16 12.92 21.159 6.908 5.428 16.24 9.078 26.12 12.942 17.052 6.67 34.559 13.53 38.609 30.183h1.073c-3.981-17.292-21.886-24.303-39.317-31.12-9.809-3.838-19.074-7.46-25.864-12.797-6.154-4.836-9.437-12.925-12.61-20.747-3.454-8.511-6.717-16.55-13.383-20.571-5.456-3.289-13.457-3.21-20.884.21C1.734 4.366-.863 6.104-3.013 8.105v1.45C-.801 7.312 1.957 5.37 5.108 3.92 12.235.638 19.88.538 25.053 3.659" mask="url(#ab)"/>
        </g>
        <g transform="rotate(-90 588 179.5)">
            <mask id="ad" fill="#fff">
                <use xlink:href="#ac"/>
            </mask>
            <path fill="#303030" d="M1.848 12.468C9.458 5.711 22.816.583 30.434 1.501c14.73 1.77 18.915 12.158 23.345 23.158 1.61 3.997 3.274 8.13 5.484 11.887 7.503 12.765 20.405 18.988 32.882 25.007 3.422 1.65 6.96 3.357 10.315 5.168 16.981 9.163 34.507 19.445 45.832 35.396a94.503 94.503 0 0 1 4.472 6.94h1.168a95.8 95.8 0 0 0-4.807-7.513c-11.45-16.129-29.09-26.48-46.177-35.7-3.375-1.823-6.924-3.535-10.356-5.19-12.34-5.953-25.101-12.107-32.45-24.608-2.172-3.695-3.822-7.793-5.418-11.756C50.18 13.007 45.886 2.35 30.557.508 22.555-.454 9.098 4.684 1.167 11.726c-1.735 1.54-3.14 3.118-4.217 4.708v1.934c1.08-1.979 2.718-3.964 4.898-5.9" mask="url(#ad)"/>
        </g>
        <g transform="rotate(-90 573.5 193.5)">
            <mask id="af" fill="#fff">
                <use xlink:href="#ae"/>
            </mask>
            <path fill="#303030" d="M24.004 3.525c11.123.533 21.628 9.195 32.114 26.482 3.156 5.203 5.571 11.446 7.906 17.482 3.295 8.51 6.7 17.31 12.332 23.786 6.436 7.402 16.172 11.033 25.585 14.543 4.326 1.613 8.41 3.136 11.983 4.96 13.764 7.034 23.428 15.655 35.469 28.17 5.399 5.61 9.372 11.796 12.811 18.09h3.425c-3.715-6.976-8.008-13.888-14.072-20.19-11.954-12.425-22.19-21.57-36.27-28.764-3.727-1.904-7.89-3.456-12.298-5.1-9.062-3.379-18.432-6.873-24.366-13.696-5.284-6.08-8.593-14.628-11.793-22.895-2.383-6.158-4.848-12.527-8.142-17.958C47.64 10.225 36.344 1.09 24.148.505 15.93.092 4.381 5.232-3.01 12.278v4.34l.023-.026C4.14 8.343 16.693 3.188 24.003 3.525" mask="url(#af)"/>
        </g>
        <g transform="rotate(-90 45.5 37)">
            <mask id="ah" fill="#fff">
                <use xlink:href="#ag"/>
            </mask>
            <path fill="#303030" d="M81.6 29.36c-10.302 9.678-25.907 16.025-40.403 21.908-7.052 2.862-13.713 5.566-19.213 8.468l-.337.178c-6.196 3.273-15.561 8.221-19.459.768-3.508-6.707 5.32-18.166 9.278-22.78 3.492-4.071 7.073-7.627 10.538-11.065 9.952-9.88 18.642-18.517 21.3-34.96H42.27C39.62 7.892 31.083 16.399 21.297 26.113c-3.479 3.453-7.075 7.022-10.592 11.124C6.61 42.01-2.5 53.896 1.297 61.157c1.71 3.27 4.328 4.424 7.253 4.424 4.542-.001 9.821-2.79 13.566-4.768l.335-.177c5.456-2.879 12.094-5.574 19.123-8.427 13.734-5.574 29.38-11.934 40.026-21.64v-1.21z" mask="url(#ah)"/>
        </g>
        <g transform="rotate(-90 54 45.5)">
            <mask id="aj" fill="#fff">
                <use xlink:href="#ai"/>
            </mask>
            <path fill="#303030" d="M99.704 39.372c-4.43 2.763-9.165 5.176-13.847 7.553-2.317 1.175-4.71 2.39-6.997 3.617-16.851 9.04-26.292 21.947-36.287 35.614-.387.53-.827 1.14-1.312 1.817-5.679 7.902-17.496 24.343-27.98 24.593-3.228.095-6.135-1.463-8.612-4.58-8.44-10.62.306-41.3 2.144-47.343 3.958-12.997 11.365-25.164 22.015-36.16a596.717 596.717 0 0 1 3.364-3.44c9.044-9.2 16.452-16.776 18.564-29.08h-1.038c-2.12 11.925-9.39 19.36-18.255 28.38-1.1 1.117-2.225 2.263-3.371 3.445C17.33 34.901 9.843 47.204 5.84 60.354 3.22 68.96-4.663 97.872 3.868 108.605c2.622 3.298 5.709 4.969 9.178 4.969.086 0 .173-.001.26-.004 10.994-.262 23.01-16.98 28.784-25.015.484-.674.922-1.283 1.308-1.81 9.925-13.571 19.3-26.39 35.947-35.32 2.277-1.221 4.666-2.434 6.977-3.607 4.516-2.293 9.08-4.62 13.382-7.258v-1.188z" mask="url(#aj)"/>
        </g>
        <g transform="rotate(-90 64.5 55)">
            <mask id="al" fill="#fff">
                <use xlink:href="#ak"/>
            </mask>
            <path fill="#303030" d="M118.526 47.437c-7.151 5.172-14.321 10.138-22.242 14.887-12.296 7.368-17.01 15.862-23.538 27.617l-.454.816c-4.02 7.236-25.155 43.587-46.5 48.602-5.457 1.284-10.53.35-15.074-2.772-11.156-7.661-18.096-29.211 12.189-88.362 5.475-10.694 13.297-20.317 20.862-29.622.96-1.181 1.918-2.36 2.87-3.537C50.855 9.845 54.064 5.65 56.956-.796 58.023-3.17 59.008-5.614 59.931-8h-1.075c-.877 2.258-1.808 4.558-2.811 6.795-2.843 6.337-6.016 10.48-10.185 15.643-.95 1.176-1.908 2.353-2.867 3.534-7.598 9.345-15.455 19.01-20.978 29.797-30.616 59.797-23.35 81.754-11.863 89.643 3.399 2.335 7.076 3.507 10.98 3.507 1.594 0 3.225-.195 4.889-.586 21.755-5.113 43.091-41.79 47.147-49.09l.453-.817c6.691-12.052 11.111-20.013 23.176-27.245 7.74-4.639 14.752-9.477 21.729-14.511v-1.233z" mask="url(#al)"/>
        </g>
        <g transform="rotate(-90 75 66)">
            <mask id="an" fill="#fff">
                <use xlink:href="#am"/>
            </mask>
            <path fill="#303030" d="M140.565 60.077c-16.11 9.088-23.787 24.564-31.854 40.836-5.48 11.051-11.143 22.478-19.72 31.748-10.547 11.396-35.417 31.913-57.19 31.911-1.109 0-2.21-.053-3.3-.163-9.15-.926-16.499-5.878-21.846-14.719-8.267-13.665-5.262-32.68-1.287-46.227 4.62-15.746 13.07-32.366 22.052-43.374 5.077-6.22 9.991-12.86 14.744-19.28 3.843-5.19 7.472-10.094 11.168-14.778 1.143-1.446 2.358-2.9 3.532-4.309 3.477-4.163 7.07-8.468 9.627-13.496 1.422-2.797 2.354-6.054 3.258-9.205.708-2.47 1.402-4.858 2.293-7.02h-1.079c-.856 2.152-1.527 4.467-2.18 6.746-.89 3.105-1.81 6.316-3.189 9.027-2.504 4.927-6.06 9.188-9.502 13.31-1.18 1.412-2.4 2.872-3.549 4.33-3.705 4.695-7.34 9.604-11.187 14.801-4.746 6.411-9.654 13.04-14.715 19.243-9.06 11.104-17.582 27.858-22.237 43.724-4.033 13.738-7.063 33.05 1.39 47.024 5.52 9.125 13.126 14.24 22.606 15.197 1.117.114 2.244.168 3.378.168 22.138 0 47.297-20.719 57.95-32.232 8.676-9.376 14.373-20.868 19.883-31.983 7.908-15.95 15.437-31.129 30.954-40.124v-1.155z" mask="url(#an)"/>
        </g>
        <g transform="rotate(-90 86 77.5)">
            <mask id="ap" fill="#fff">
                <use xlink:href="#ao"/>
            </mask>
            <path fill="#303030" d="M163.663 86.02c-13.373 9.264-22.038 27.394-28.948 41.85-1.604 3.358-3.121 6.53-4.587 9.372l-.868 1.686c-14.48 28.103-36.364 70.574-69.276 77.148-10.272 2.052-19.558.226-27.591-5.426C15.956 199.083 6.946 172.7 3.995 151.865c-5.138-36.276 18.496-77.79 25.862-89.65 4.981-8.022 11.79-14.838 18.374-21.43 4.391-4.396 8.932-8.941 12.954-13.851 2.776-3.389 5.96-10.26 9.33-17.535 2.67-5.765 5.973-12.892 8.926-17.454h-3.556C73.45-3.995 70.817 1.52 67.75 8.137c-3.287 7.096-6.391 13.798-8.925 16.89-3.927 4.794-8.413 9.286-12.753 13.63C39.368 45.37 32.435 52.313 27.27 60.63 19.768 72.705-4.296 115.009.984 152.285c1.474 10.413 7.972 45.574 29.652 60.83 6.433 4.527 13.587 6.802 21.353 6.802 2.787 0 5.655-.293 8.595-.88 34.349-6.86 56.635-50.112 71.383-78.732l.868-1.685c1.486-2.883 3.012-6.075 4.626-9.453 6.748-14.118 14.598-30.508 26.202-39.472V86.02z" mask="url(#ap)"/>
        </g>
        <g transform="rotate(-90 99.5 91.5)">
            <mask id="ar" fill="#fff">
                <use xlink:href="#aq"/>
            </mask>
            <path fill="#303030" d="M191.583 397.9c-.53-.686-1.066-1.364-1.588-2.06-2.845-3.784-5.926-8.341-9.187-13.166-17.861-26.424-42.32-62.617-75.688-43.54-5.21 2.979-9.63 6.385-13.906 9.678-7.954 6.127-15.467 11.914-26.582 13.555-17.535 2.588-35.46-2.666-46.778-13.71-25.615-24.999-13.012-64.328.831-95.798 9.6-21.825 5.822-41.314 1.82-61.949-2.18-11.247-4.434-22.877-4.434-35.137 0-37.757 9.276-68.97 27.57-92.773 4.85-6.31 10.423-12.205 15.813-17.905 5.422-5.736 11.03-11.668 15.899-18.02 3.855-5.033 7.038-10.568 10.118-15.922.848-1.472 1.695-2.946 2.557-4.41 1.352-2.296 2.731-5.672 4.193-9.246.746-1.825 1.524-3.726 2.321-5.537h-3.289a300.88 300.88 0 0 0-1.825 4.397c-1.42 3.47-2.76 6.748-4.001 8.857-.867 1.473-1.72 2.955-2.573 4.437-3.03 5.268-6.165 10.716-9.898 15.591-4.773 6.229-10.326 12.102-15.696 17.782-5.44 5.756-11.067 11.707-16.01 18.14-18.71 24.342-28.196 56.173-28.196 94.609 0 12.55 2.282 24.324 4.49 35.71 3.908 20.16 7.598 39.2-1.622 60.163-14.234 32.36-27.116 72.875-.175 99.168 11.978 11.688 30.883 17.254 49.325 14.535 11.894-1.756 19.71-7.776 27.984-14.15 4.195-3.231 8.532-6.572 13.563-9.448 30.933-17.69 54.489 17.165 71.69 42.61 3.282 4.857 6.383 9.446 9.274 13.291a248.592 248.592 0 0 0 4 5.145v-4.898z" mask="url(#ar)"/>
        </g>
        <path fill="#303030" d="M443.019.246c-.022.01-.046.018-.068.026-3.104 1.206-6.035 2.343-8.706 3.547-1.398.63-3.025 1.346-4.833 2.143-22.21 9.783-67.977 29.942-67.977 53.465 0 .445.018.893.05 1.34.632 8.489 7.96 16.889 15.048 25.013 4.125 4.727 8.021 9.193 10.44 13.474 10.348 18.301 13.92 34.846 12.768 59.006-1.314 27.399-11.747 43.313-34.886 53.212-24.368 10.425-45.733 8.257-74.405.988-8.28-2.1-16.645-4.695-24.734-7.203-14.105-4.374-28.69-8.896-43.263-10.929-11.077-1.544-22.696-1.607-33.932-1.668-6.408-.034-13.033-.07-19.437-.384-28.44-1.391-71.505-10.171-99.285-30.34-6.196-4.498-11.53-10.072-16.687-15.46-6.002-6.27-12.207-12.754-19.834-17.625-7.067-4.514-19.413-11.79-32.466-16.738v1.077c12.835 4.913 24.96 12.062 31.926 16.511 7.524 4.807 13.687 11.245 19.647 17.473 5.189 5.421 10.554 11.026 16.824 15.58 27.958 20.297 71.248 29.13 99.825 30.528 6.427.315 13.063.352 19.481.386 11.204.061 22.789.124 33.799 1.658 14.493 2.022 29.038 6.532 43.104 10.894 8.102 2.512 16.48 5.11 24.785 7.216 28.88 7.322 50.418 9.5 75.047-1.037 23.544-10.073 34.16-26.25 35.495-54.09 1.172-24.366-2.445-41.067-12.896-59.55-2.47-4.372-6.399-8.876-10.558-13.644-6.98-7.998-14.196-16.27-14.802-24.423-1.739-23.365 46.66-44.703 67.328-53.807 1.812-.798 3.44-1.516 4.84-2.147 2.646-1.193 5.566-2.327 8.657-3.525.817-.318 1.647-.64 2.48-.967h-2.775z"/>
        <g transform="rotate(-90 85 -31)">
            <mask id="at" fill="#fff">
                <use xlink:href="#as"/>
            </mask>
            <path fill="#303030" d="M53.535 269.136c-4.607-6.354-9.403-12.633-14.136-18.825-1.765-2.31-3.516-4.6-5.237-6.87-1.923-2.536-4.4-5.044-6.797-7.47-7.355-7.45-14.961-15.152-8.666-25.375 3.841-6.24 10.028-6.709 16.01-7.162 5.785-.44 11.25-.854 13.29-6.824 3.157-9.238-3.75-23.25-8.794-33.483-1.113-2.252-2.162-4.38-2.958-6.173-6.617-14.891-15.126-25.044-24.98-36.8-1.206-1.44-2.43-2.902-3.673-4.398-11.34-13.65-5.103-26.317 2.119-40.982 3.65-7.413 8.211-14.58 12.62-21.512 3.911-6.144 7.955-12.498 11.348-19 .851-1.628 1.743-3.38 2.672-5.206 4.9-9.625 10.919-21.447 17.182-27.484V.22C46.89 6.169 40.572 18.56 35.462 28.596a549.831 549.831 0 0 1-2.666 5.198c-3.374 6.465-7.406 12.8-11.305 18.925-4.425 6.955-9.001 14.145-12.676 21.607-7.376 14.983-13.747 27.922-1.99 42.076 1.244 1.496 2.47 2.96 3.678 4.4 9.804 11.698 18.271 21.802 24.83 36.564.805 1.811 1.858 3.948 2.974 6.21 4.965 10.073 11.767 23.867 8.744 32.706-1.826 5.342-6.734 5.715-12.417 6.146-5.941.452-12.676.962-16.786 7.636-6.711 10.901 1.178 18.89 8.808 26.617 2.373 2.403 4.827 4.888 6.711 7.373 1.721 2.268 3.472 4.56 5.239 6.87 5.006 6.55 10.083 13.196 14.93 19.921v-1.71z" mask="url(#at)"/>
        </g>
        <g transform="rotate(-90 91 -50)">
            <mask id="av" fill="#fff">
                <use xlink:href="#au"/>
            </mask>
            <path fill="#303030" d="M40.702 238.093c-2.263-5.55-6.64-11.178-11.26-17.114-6.835-8.778-13.901-17.858-13.67-26.734.2-7.656 6.15-9.006 12.45-10.436 4.67-1.06 9.498-2.156 11.778-6.037.285-.486.508-1.02.702-1.576v-9.053a38.853 38.853 0 0 0-.785-3.021c-2.086-6.852-5.229-13.768-8.27-20.455-2.727-6.002-5.549-12.208-7.537-18.246-2.749-8.344-7.092-16.17-11.292-23.737-3.632-6.542-7.384-13.306-10.051-20.321-5.529-14.547 3.244-32.827 9.65-46.175 4.592-9.57 19.32-35.335 26.13-33.693l.24-.978c-9.117-2.207-27.113 33.874-27.29 34.24C5.38 47.505-3.867 66.77 1.814 81.717c2.693 7.083 6.464 13.88 10.112 20.45 4.178 7.529 8.497 15.312 11.216 23.567 2.006 6.088 4.838 12.32 7.578 18.346 3.026 6.659 6.156 13.543 8.224 20.333 1.776 5.828 1.832 10.033.175 12.855-2.056 3.501-6.46 4.5-11.123 5.56-6.402 1.453-13.02 2.955-13.242 11.39-.24 9.234 6.938 18.457 13.88 27.376 4.92 6.318 9.565 12.286 11.586 18.089l.482-.164v-1.426z" mask="url(#av)"/>
        </g>
        <g transform="rotate(-90 126.5 116.5)">
            <mask id="ax" fill="#fff">
                <use xlink:href="#aw"/>
            </mask>
            <path fill="#303030" d="M13.254 388.582c2.375 4.287 4.832 8.72 6.884 13.276a183.365 183.365 0 0 1 12.775 40.221c3.742 19.216 2.766 43.385-3.325 64.941h1.03c6.07-21.656 7.032-45.87 3.283-65.132a184.477 184.477 0 0 0-12.847-40.441c-2.07-4.597-4.536-9.046-6.921-13.35-4.847-8.748-9.425-17.012-11.202-26.699-5.07-27.608 2.59-53.512 9.996-78.562 2.482-8.394 5.047-17.073 7.1-25.696 1.135-4.764 2.405-9.518 3.634-14.117 3.434-12.853 6.679-24.993 7.457-38.154.386-6.509.544-13.313.697-19.893.28-12.091.57-24.594 2.261-36.316 2.44-16.927 9.262-31.74 15.86-46.065 2.007-4.357 3.889-8.85 5.71-13.194 4.231-10.096 8.608-20.536 14.791-29.835 6.162-9.264 13.887-17.13 21.358-24.736 3.073-3.13 6.251-6.366 9.258-9.638 9.63-10.482 13.122-22.33 14.719-33.224h-1.017c-1.584 10.699-5.031 22.303-14.442 32.544-2.994 3.26-6.167 6.49-9.235 9.614-7.504 7.64-15.263 15.541-21.476 24.884-6.238 9.379-10.633 19.863-14.883 30.004-1.817 4.335-3.697 8.819-5.697 13.161-6.626 14.39-13.48 29.27-15.941 46.342-1.698 11.782-1.989 24.315-2.27 36.436-.154 6.571-.31 13.366-.695 19.857-.773 13.06-4.004 25.151-7.425 37.954-1.231 4.605-2.504 9.366-3.64 14.144-2.048 8.596-4.61 17.263-7.088 25.643-7.44 25.163-15.134 51.184-10.022 79.028 1.808 9.849 6.641 18.57 11.313 27.003" mask="url(#ax)"/>
        </g>
        <g transform="rotate(-90 308.5 -113)">
            <mask id="az" fill="#fff">
                <use xlink:href="#ay"/>
            </mask>
            <path fill="#303030" d="M3.513 96.212c1.231-9.169 1.558-19.256 1.879-29.193.739-22.848 1.502-46.473 13.072-57.235 4.953-4.607 11.544-6.647 20.162-6.241C50.206 4.09 60.904 6.767 72.23 9.6c5.673 1.42 11.54 2.888 17.47 4.044 7.05 1.373 14.454 1.565 21.616 1.75 9.929.257 20.196.523 29.43 3.984 28.741 10.777 47.809 48.901 46.409 76.833h3.02c.724-14.612-3.63-31.3-12.113-46.167-9.325-16.34-22.204-28.241-36.264-33.513-9.703-3.64-20.228-3.911-30.405-4.174-7.038-.183-14.317-.371-21.119-1.697-5.854-1.14-11.68-2.598-17.315-4.01-10.97-2.744-22.313-5.583-34.19-6.143-9.466-.454-16.775 1.858-22.35 7.044C3.921 19.178 3.136 43.447 2.377 66.92 2.053 76.931 1.72 87.092.469 96.212h3.044z" mask="url(#az)"/>
        </g>
        <g transform="rotate(-90 308.5 -132)">
            <mask id="aB" fill="#fff">
                <use xlink:href="#aA"/>
            </mask>
            <path fill="#303030" d="M4.788 48.708c.709 11.54-1.247 20.057-4.48 28.363H1.39c3.194-8.3 5.112-16.855 4.402-28.426-.23-3.74-.738-7.135-1.231-10.417C2.924 27.305 1.63 18.676 13.599 9.276c19.184-15.067 55.087-5.83 81.306.912 5.504 1.415 10.703 2.752 15.173 3.713 28.166 6.05 50.424 33.45 51.86 63.17h1.008c-1.436-30.181-24.047-58.016-52.658-64.162-4.451-.956-9.64-2.291-15.134-3.704-26.42-6.793-62.6-16.1-82.174-.729C.547 18.24 1.88 27.128 3.566 38.379c.49 3.26.995 6.632 1.222 10.329" mask="url(#aB)"/>
        </g>
        <g transform="rotate(-90 308 -143.5)">
            <mask id="aD" fill="#fff">
                <use xlink:href="#aC"/>
            </mask>
            <path fill="#303030" d="M1.446 65.514c4.272-13.335 6.15-25.876 7.6-41.273.767-8.16 3.787-14.2 8.975-17.954 12.673-9.167 35.74-3.874 54.272.374 5.043 1.157 9.807 2.25 13.744 2.884 23.784 3.83 55.805 30.754 58.847 55.969h1.016C142.884 39.862 110.35 12.44 86.197 8.55c-3.904-.629-8.653-1.718-13.68-2.87-18.73-4.296-42.043-9.644-55.086-.21C11.997 9.4 8.84 15.685 8.042 24.147 6.589 39.588 4.703 52.141.386 65.514h1.06z" mask="url(#aD)"/>
        </g>
        <g transform="rotate(-90 304.5 -154)">
            <mask id="aF" fill="#fff">
                <use xlink:href="#aE"/>
            </mask>
            <path fill="#303030" d="M.138 57h1.008c.003-1.479-.005-2.952-.014-4.413-.03-5.141-.06-10.456.43-15.539C2.707 25.192 6.081 8.787 22.092 3.223c12.955-4.501 25.802-.864 38.227 2.65 2.038.577 4.048 1.146 6.021 1.665 16.777 4.42 59.258 21.761 59.215 49.462h1.008c.037-28.331-42.972-45.952-59.966-50.429-1.966-.517-3.97-1.085-6.001-1.66C48.604 1.52 35.012-2.325 21.76 2.279 5.202 8.033 1.73 24.823.558 36.952.063 42.086.093 47.428.124 52.593.133 54.052.14 55.523.138 57" mask="url(#aF)"/>
        </g>
        <g transform="rotate(-90 308 -167.5)">
            <mask id="aH" fill="#fff">
                <use xlink:href="#aG"/>
            </mask>
            <path fill="#303030" d="M1.517 39.861a21.787 21.787 0 0 1-.024-2.887c.435-6.956 1.503-14.876 6.123-20.883C18.648 1.75 34.434.217 45.734 1.46c10.402 1.142 47.319 11.458 57 27.084 2.322 3.75 2.841 7.553 1.596 11.318h1.046c1.215-3.945.627-7.916-1.792-11.821C93.728 12.128 56.365 1.647 45.844.493 29.275-1.322 15.776 3.866 6.822 15.507 2.042 21.72.943 29.815.499 36.915a22.674 22.674 0 0 0 .02 2.946h.998z" mask="url(#aH)"/>
        </g>
        <g transform="rotate(-90 310 -180)">
            <mask id="aJ" fill="#fff">
                <use xlink:href="#aI"/>
            </mask>
            <path fill="#303030" d="M1.045 28c.62-4.282 2.363-8.43 5.204-12.23C13.035 6.686 25.242.965 36.601 1.499c20.555.987 44.863 7.728 51.44 23.688l.944-.375C82.227 8.415 57.52 1.502 36.65.501 24.957-.076 12.41 5.837 5.429 15.177 2.452 19.159.642 23.51.018 28h1.027z" mask="url(#aJ)"/>
        </g>
        <g transform="rotate(-90 139.5 129.5)">
            <mask id="aL" fill="#fff">
                <use xlink:href="#aK"/>
            </mask>
            <path fill="#303030" d="M20.533 394.203c9.824 21.025 17.742 52.428 10.502 77.51-2.508 8.69-5.632 17.323-8.654 25.672-1.147 3.17-2.302 6.392-3.441 9.635h3.204a1174.78 1174.78 0 0 1 3.082-8.615c3.039-8.394 6.179-17.075 8.715-25.862 7.47-25.878-.612-58.092-10.665-79.61-7.445-15.935-16.71-35.767-19.306-53.795-2.126-14.783 1.965-29.963 5.92-44.645.838-3.107 1.629-6.042 2.367-8.993.553-2.21 1.084-4.441 1.616-6.681 1.77-7.454 3.598-15.16 6.387-22.225 1.725-4.373 4.149-8.674 6.49-12.833 3.34-5.927 6.79-12.055 8.466-18.723 2.463-9.799 2.122-20.593 1.793-31.033-.224-7.096-.456-14.432.237-21.164 1.94-18.824 9.259-35.567 16.338-51.76 2.271-5.195 4.313-10.314 6.285-15.265 4.927-12.363 9.581-24.041 17.235-35.72 9.559-14.586 19.87-28.644 30.65-41.783 1.852-2.26 3.855-4.402 5.792-6.474 2.874-3.076 5.847-6.257 8.392-9.884 2.442-3.478 3.804-8.357 5.008-12.661.887-3.174 1.726-6.168 2.696-7.326h-3.471c-.79 1.72-1.433 3.994-2.138 6.518-1.138 4.072-2.429 8.687-4.574 11.744-2.423 3.453-5.194 6.418-8.128 9.557-1.97 2.107-4.004 4.286-5.92 6.62C94.564 39.629 84.19 53.774 74.571 68.45c-7.82 11.933-12.527 23.747-17.512 36.255-1.965 4.928-3.995 10.024-6.247 15.174-6.838 15.64-14.588 33.365-16.574 52.655-.714 6.932-.48 14.371-.252 21.565.323 10.234.657 20.816-1.704 30.207-1.578 6.277-4.929 12.228-8.169 17.981-2.392 4.248-4.866 8.64-6.668 13.206-2.867 7.263-4.722 15.076-6.516 22.633-.529 2.228-1.055 4.447-1.606 6.645-.732 2.926-1.52 5.848-2.354 8.941-4.034 14.975-8.206 30.458-5.99 45.854 2.655 18.468 12.025 38.522 19.554 54.637" mask="url(#aL)"/>
        </g>
        <path fill="#303030" d="M292.016 322.154c0 2.468 1.025 5.862 2.884 9.555l.043.127 2.033 10.072c5.356 16.732 18.15 22.624 36.984 16.988 3.023-.904 6.884-1.702 10.97-2.547 11.84-2.446 26.574-5.49 32.5-13.415 2.357-3.152 3.554-5.665 3.554-7.47 0-1-.367-1.765-1.123-2.34-4.573-3.474-21.42 1.014-29.514 3.172-2.376.633-4.094 1.09-4.953 1.224-12.388 1.924-20.415-3.65-28.915-9.553-4.077-2.831-8.294-5.758-13.122-7.908-4.686-2.084-8.088-2.594-9.837-1.472-.999.64-1.504 1.84-1.504 3.567M382 335.464c0 2.053-1.228 4.693-3.753 8.07-6.157 8.232-21.1 11.32-33.108 13.801-4.064.84-7.905 1.634-10.885 2.525-19.462 5.825-32.692-.297-38.26-17.702L293.96 332.1c-1.12-2.235-2.96-6.44-2.96-9.945 0-2.09.662-3.576 1.967-4.413 2.082-1.335 5.719-.864 10.806 1.4 4.917 2.188 9.173 5.142 13.29 8 8.326 5.783 16.19 11.245 28.174 9.383.805-.123 2.587-.599 4.846-1.201 8.884-2.367 25.425-6.774 30.396-2.997 1.009.766 1.521 1.823 1.521 3.138"/>
        <path fill="#303030" d="M261.002 297.888c0 4.536 2.135 10.338 5.858 15.916 2.804 4.2 5.63 8.628 8.362 12.912 5.176 8.112 10.529 16.5 16.169 24.056 17.97 24.07 46.564 14.242 69.54 6.347 1.34-.462 2.788-.926 4.304-1.414 9.925-3.184 22.275-7.146 26.263-16.635.995-2.368 1.5-4.5 1.5-6.336 0-2.24-.718-4.046-2.195-5.52-4.738-4.732-16.184-4.655-23.76-4.603-.73.005-1.43.01-2.088.01l-9.948 3c-19.33 8.207-35.983-4.762-52.089-17.304-8.338-6.495-16.214-12.629-24.39-15.946-6.655-2.701-11.72-3.079-14.652-1.092-1.88 1.276-2.874 3.561-2.874 6.609M394 332.733v.001c0 1.971-.532 4.235-1.58 6.727-4.166 9.916-16.76 13.958-26.88 17.204-1.509.485-2.95.947-4.284 1.405-23.283 8.003-52.26 17.961-70.667-6.694-5.663-7.585-11.024-15.989-16.21-24.116-2.73-4.28-5.554-8.704-8.35-12.896-3.832-5.739-6.029-11.745-6.029-16.476 0-3.399 1.147-5.973 3.315-7.445 3.266-2.214 8.51-1.88 15.589.994 8.304 3.37 16.233 9.545 24.628 16.084 15.877 12.364 32.295 25.15 51.136 17.153l10.214-3.06c.677 0 1.398-.006 2.156-.01 7.74-.053 19.437-.133 24.471 4.894 1.653 1.651 2.491 3.748 2.491 6.235"/>
        <path fill="#303030" d="M341.728 371.398l4.972-4 .157-.012c14.554-.975 69.63-19.63 69.635-39.843v-.003c0-1.722-.412-3.439-1.226-5.106-8.452-17.322-29.484-12.248-49.825-7.34-14.618 3.527-28.424 6.858-37.698 2.3-6.67-3.278-12.957-8.757-19.036-14.057-5.012-4.37-10.195-8.887-15.505-12.076-12.38-7.436-24.601-14.52-37.973-19.474-7.47-2.767-20.888-5.268-27.236-.815-3.61 2.531-4.416 7.08-2.407 13.397 3.392 10.658 13.915 21.777 22.371 30.709a476.106 476.106 0 0 1 4.493 4.789c4.87 5.298 9.277 11.176 13.537 16.862 7.51 10.02 15.277 20.38 25.745 27.706 10.545 7.378 20.289 6.784 30.606 6.157 6.273-.382 12.758-.776 19.39.806M417.5 327.54v.003c-.003 11.562-16.32 21.635-30.01 28.049-15.41 7.22-32.891 12.238-40.408 12.795l-5.11 4.113-.24-.06c-6.57-1.612-13.058-1.218-19.333-.836-10.035.611-20.41 1.242-31.242-6.338-10.601-7.416-18.416-17.843-25.975-27.927-4.245-5.665-8.637-11.523-13.472-16.784-1.398-1.52-2.91-3.117-4.483-4.777-8.527-9.009-19.14-20.22-22.6-31.1-2.164-6.8-1.2-11.74 2.788-14.537 7.186-5.04 21.565-1.75 28.163.695 13.453 4.982 25.718 12.092 38.142 19.553 5.386 3.237 10.602 7.784 15.647 12.182 6.031 5.257 12.265 10.692 18.818 13.912 8.95 4.398 22.586 1.109 37.021-2.375 20.727-5 42.157-10.17 50.966 7.88.881 1.806 1.328 3.675 1.328 5.552"/>
        <path fill="#303030" d="M340.134 378.474l5.249-2.063c9.84-1.635 20.278-6.338 30.372-10.886 4.319-1.946 8.398-3.784 12.38-5.366 12.986-5.156 26.738-10.88 39.333-17.797 1.162-.636 2.39-1.296 3.663-1.978 12.045-6.46 28.543-15.306 29.756-29.082.061-.7.092-1.39.093-2.053v-.002c0-4.562-1.412-8.133-4.314-10.92-6.332-6.077-18.41-6.906-27.428-6.53-11.84.492-24.572 4.61-36.885 8.593-19.16 6.197-38.974 12.605-57.324 6.438-10.357-3.482-20.8-10.88-30.013-17.407-1.534-1.087-3.03-2.147-4.481-3.157-14.916-10.382-26.41-16.488-41-21.777-14.855-5.386-30.71-7.512-44.644-5.984-11.871 1.301-11.871 5.702-11.871 7.149 0 5.81 7.98 14.571 11.816 18.782 5.76 6.324 10.406 13.222 14.899 19.892 3.183 4.728 6.476 9.617 10.137 14.254 6.58 8.34 14.762 15.65 22.674 22.72 2.927 2.616 5.955 5.32 8.849 8.032 19.695 18.454 41.226 35.9 68.74 29.142M464 309.247v.002c-.001.751-.036 1.53-.106 2.318-1.356 15.401-18.683 24.694-31.337 31.479-1.263.679-2.483 1.333-3.636 1.966-12.74 6.995-26.597 12.763-39.672 17.957-3.92 1.555-7.968 3.38-12.255 5.311-10.214 4.602-20.775 9.36-30.954 11.085l-5.08 2.017c-29.03 7.19-51.303-10.802-71.63-29.845-2.866-2.687-5.88-5.38-8.795-7.984-8.009-7.156-16.29-14.556-23.034-23.1-3.73-4.729-7.056-9.664-10.27-14.438-4.433-6.58-9.015-13.385-14.628-19.545-6.546-7.187-12.603-14.684-12.603-20.818 0-5.678 4.899-9.094 14.562-10.152 14.383-1.577 30.72.606 46.002 6.147 14.856 5.386 26.546 11.593 41.695 22.137 1.457 1.014 2.96 2.08 4.502 3.171 9.043 6.407 19.293 13.67 29.23 17.01 17.406 5.85 36.738-.404 55.433-6.45 12.506-4.045 25.437-8.228 37.688-8.738 9.603-.4 22.544.554 29.645 7.37 3.479 3.338 5.243 7.746 5.243 13.1"/>
        <g transform="rotate(-90 343.5 100)">
            <mask id="aN" fill="#fff">
                <use xlink:href="#aM"/>
            </mask>
            <path fill="#303030" d="M14.337 107.544c5.558 12.94 10.805 25.163 22.662 35.14 17.683 14.875 28.893 34.45 39.752 54.887 3.245 6.11 6.845 11.996 10.325 17.687 7.48 12.231 14.545 23.783 18.562 37.59 1.752 6.023 1.552 13.41 1.206 20.699h3.028c.354-7.492.544-15.098-1.33-21.54-4.132-14.194-11.631-26.459-18.885-38.32-3.456-5.653-7.031-11.5-10.235-17.53-11.003-20.708-22.377-40.556-40.474-55.78-11.31-9.514-16.42-21.418-21.831-34.021-1.326-3.088-2.698-6.284-4.18-9.488-4.762-10.303-18.864-45.714-.407-68.823 5.758-7.209 14.564-9.297 23.079-11.318 1.85-.438 3.761-.892 5.588-1.389 4.63-1.259 9.49-3.257 14.19-5.191 6.157-2.532 12.501-5.141 18.483-6.171-3.628 11.829-12.133 21.533-20.373 30.934-12.813 14.619-26.063 29.736-21.236 52.943 5.091 24.482 18.326 46.214 31.126 67.23 3.132 5.146 6.373 10.465 9.363 15.632 2.418 4.18 4.64 8.477 6.789 12.633 3.507 6.785 7.134 13.802 11.687 20.429 3.716 5.41 8.105 10.41 12.35 15.243 3.96 4.509 8.054 9.172 11.574 14.14 8.714 12.307 13.2 25.666 15.498 40.387h3.02c-2.321-14.652-6.922-29.238-16.049-42.127-3.61-5.098-7.758-9.821-11.77-14.389-4.186-4.767-8.515-9.696-12.129-14.959-4.446-6.473-8.03-13.404-11.494-20.106-2.165-4.188-4.405-8.519-6.858-12.76-3.007-5.197-6.255-10.53-9.398-15.69-12.665-20.798-25.763-42.305-30.748-66.275-4.522-21.739 7.656-35.634 20.55-50.344C64.75 26.655 74.033 16.065 77.41 2.532l.52-2.087-2.143.221c-7.055.73-14.425 3.76-21.551 6.692-4.826 1.985-9.385 3.86-13.833 5.069-1.779.484-3.582.912-5.493 1.365-9.014 2.139-18.335 4.35-24.743 12.373-19.535 24.458-4.92 61.267.026 71.967 1.464 3.167 2.827 6.341 4.145 9.412" mask="url(#aN)"/>
        </g>
        <g transform="rotate(-90 160 150.5)">
            <mask id="aP" fill="#fff">
                <use xlink:href="#aO"/>
            </mask>
            <path fill="#303030" d="M22.9 125.63c5.21 9.23 10.598 18.775 14.887 29.152 3.36 8.13 6.13 16.82 8.808 25.224 1.647 5.166 3.35 10.506 5.18 15.695 4.735 13.426 5.42 31.537 1.74 46.14-2.982 11.836-7.3 23.386-11.476 34.554a1531.57 1531.57 0 0 0-2.73 7.343c-2.053 5.576-5.299 10.856-8.438 15.96-4.509 7.332-9.17 14.912-10.39 23.52-2.776 19.596 4.696 37.838 11.923 55.48 5.188 12.667 10.554 25.765 11.876 39.02 2.13 21.345-2.082 42.347-5.988 58.257-2.73 11.124-4.132 21.601-4.96 31.045h1.003c.827-9.38 2.22-19.776 4.927-30.804 3.926-15.99 8.158-37.1 6.012-58.598-1.336-13.4-6.729-26.568-11.945-39.3-7.176-17.52-14.596-35.633-11.858-54.96 1.19-8.398 5.796-15.888 10.25-23.132 3.165-5.147 6.44-10.47 8.525-16.14.9-2.445 1.814-4.89 2.73-7.338 4.185-11.195 8.513-22.77 11.508-34.66 3.725-14.782 3.03-33.123-1.767-46.723-1.826-5.173-3.525-10.507-5.17-15.665-2.684-8.424-5.46-17.133-8.837-25.303-4.312-10.434-9.715-20.006-14.94-29.262C15.25 110.041 7.2 95.785 3.516 78.157-.018 61.242.63 43.347 5.248 30.29 8.724 20.459 18.115.119 27.49-8.032h-1.466C16.745.75 7.708 20.336 4.306 29.952-.372 43.177-1.033 61.275 2.54 78.363c3.715 17.78 11.8 32.103 20.361 47.267" mask="url(#aP)"/>
        </g>
        <g transform="matrix(0 -1 1 0 9 294)">
            <mask id="aR" fill="#fff">
                <use xlink:href="#aQ"/>
            </mask>
            <path fill="#303030" d="M120.716-8.021c-2.45 5.654-4.766 11.66-7.185 17.934-3.355 8.708-6.825 17.71-10.79 25.966l-1.54 3.203C93.557 54.974 85.653 71.407 79.865 88.3c-3.29 9.601-7.843 18.694-12.246 27.487-3.939 7.869-8.012 16.004-11.123 24.413-3.253 8.783-5.323 18.449-5.83 27.216-.103 1.759-.024 4.186.058 6.755.21 6.543.47 14.684-1.877 18.11-1.241 1.813-2.494 2.63-3.7 2.427-5.075-.854-9.658-17.652-12.122-26.678-.707-2.59-1.264-4.635-1.67-5.746-3.563-9.763-7.716-18.791-11.733-27.524C10.27 114.432 1.437 95.231 1.507 70.188c.05-18.554 2.865-31.92 9.717-46.133 1.385-2.874 2.69-5.94 4.07-9.186 3.309-7.776 6.945-16.29 12.239-22.89h-1.286c-5.105 6.602-8.645 14.9-11.876 22.498-1.377 3.235-2.677 6.29-4.052 9.143C3.398 37.978.554 51.469.502 70.186.432 95.449 9.31 114.747 18.71 135.18c4.008 8.713 8.153 17.723 11.701 27.447.392 1.072.944 3.1 1.645 5.667 2.699 9.89 7.216 26.442 12.924 27.402.182.032.363.047.545.047 1.439 0 2.834-.972 4.152-2.896 2.531-3.697 2.264-12.02 2.051-18.708-.081-2.546-.16-4.951-.06-6.665.502-8.67 2.55-18.234 5.769-26.927 3.093-8.356 7.153-16.467 11.08-24.312 4.418-8.822 8.985-17.946 12.298-27.611 5.77-16.836 13.66-33.243 21.292-49.108l1.54-3.203c3.982-8.291 7.459-17.314 10.821-26.04 2.472-6.412 4.84-12.542 7.346-18.294h-1.098z" mask="url(#aR)"/>
        </g>
        <g transform="matrix(0 -1 1 0 8 277)">
            <mask id="aT" fill="#fff">
                <use xlink:href="#aS"/>
            </mask>
            <path fill="#303030" d="M68.87-8.107c-5.453 27.871-13.573 53.073-26.006 80.86-6.315 14.11-11.194 26.684-15.357 39.57l-.437 1.35c-2.135 6.591-3.822 11.797-4.622 18.79-.187 1.636-.291 3.849-.402 6.19-.161 3.4-.339 7.144-.799 9.496-1.391-5.47-3.632-10.346-5.99-15.477-2.698-5.87-5.486-11.94-6.923-19.054l-.66-3.25C5.076 97.582 2.13 83.091 1.512 69.897.502 48.4 12.62 29.03 24.343 10.3 28.28 4.009 32.057-2.048 35.338-8.107h-1.146C30.986-2.234 27.312 3.651 23.49 9.76 11.686 28.624-.52 48.13.505 69.943c.623 13.274 3.576 27.806 6.181 40.628l.66 3.249c1.461 7.23 4.275 13.353 6.996 19.276 2.596 5.649 5.047 10.984 6.35 17.108l.3 1.415.643-1.295c.958-1.93 1.192-6.857 1.416-11.622.111-2.326.214-4.52.398-6.123.788-6.892 2.46-12.055 4.58-18.592l.436-1.35c4.152-12.85 9.02-25.392 15.318-39.47C56.277 45.243 64.43 19.922 69.9-8.106H68.87z" mask="url(#aT)"/>
        </g>
        <g transform="rotate(-90 147 137.5)">
            <mask id="aV" fill="#fff">
                <use xlink:href="#aU"/>
            </mask>
            <path fill="#303030" d="M90.738-8.046c-.638 4.768-1.92 9.658-3.183 14.434-.88 3.329-1.79 6.77-2.453 10.088-2.425 12.133-6.79 22.606-12.598 34.599-2.292 4.73-4.603 9.443-6.91 14.147C58.386 79.917 50.933 95.11 44.526 110.1c-4.707 11.012-5.59 20.895-6.613 32.337-.2 2.229-.17 5.179-.14 8.301.076 7.774.17 17.36-3.124 22.043-3.26-7.461-6.763-14.887-10.156-22.076-7.552-16.008-15.363-32.562-20.64-49.94C-1.79 82.167 2.949 54.8 9.742 37.244c1.172-3.03 2.279-6.173 3.348-9.215 2.39-6.79 4.862-13.81 8.251-20.118.762-1.42 1.954-4.36 3.334-7.763.967-2.387 2.185-5.39 3.413-8.194h-1.1C25.984-5.74 24.904-3.11 23.735-.228c-1.369 3.376-2.55 6.293-3.288 7.664-3.426 6.377-5.91 13.435-8.313 20.261-1.068 3.034-2.172 6.17-3.338 9.186-6.853 17.711-11.625 45.347-5.91 64.172 5.297 17.45 13.123 34.036 20.691 50.078 3.507 7.431 7.134 15.117 10.482 22.827l.32.736.527-.607c4.062-4.68 3.96-15.037 3.878-23.36-.03-3.097-.06-6.023.135-8.204 1.015-11.356 1.892-21.166 6.536-32.03C51.853 95.528 59.3 80.345 66.502 65.661c2.308-4.705 4.621-9.42 6.912-14.15 5.841-12.062 10.233-22.602 12.679-34.84.658-3.288 1.564-6.715 2.44-10.029 1.284-4.852 2.586-9.82 3.226-14.689h-1.02z" mask="url(#aV)"/>
        </g>
    </g>
</svg>
