<svg xmlns="http://www.w3.org/2000/svg" width="204" height="203" viewBox="0 0 204 203">
    <g fill="#164499" fill-rule="evenodd" opacity=".2">
        <ellipse cx="2.833" cy="2.839" rx="2.833" ry="2.839"/>
        <ellipse cx="18.417" cy="2.839" rx="2.833" ry="2.839"/>
        <ellipse cx="34" cy="2.839" rx="2.833" ry="2.839"/>
        <ellipse cx="49.583" cy="2.839" rx="2.833" ry="2.839"/>
        <ellipse cx="63.75" cy="2.839" rx="2.833" ry="2.839"/>
        <ellipse cx="79.333" cy="2.839" rx="2.833" ry="2.839"/>
        <ellipse cx="94.917" cy="2.839" rx="2.833" ry="2.839"/>
        <ellipse cx="109.083" cy="2.839" rx="2.833" ry="2.839"/>
        <ellipse cx="124.667" cy="2.839" rx="2.833" ry="2.839"/>
        <ellipse cx="140.25" cy="2.839" rx="2.833" ry="2.839"/>
        <ellipse cx="154.417" cy="2.839" rx="2.833" ry="2.839"/>
        <ellipse cx="170" cy="2.839" rx="2.833" ry="2.839"/>
        <ellipse cx="185.583" cy="2.839" rx="2.833" ry="2.839"/>
        <ellipse cx="201.167" cy="2.839" rx="2.833" ry="2.839"/>
        <ellipse cx="2.833" cy="2.839" rx="2.833" ry="2.839"/>
        <ellipse cx="2.833" cy="15.615" rx="2.833" ry="2.839"/>
        <ellipse cx="18.417" cy="2.839" rx="2.833" ry="2.839"/>
        <ellipse cx="18.417" cy="15.615" rx="2.833" ry="2.839"/>
        <ellipse cx="34" cy="2.839" rx="2.833" ry="2.839"/>
        <ellipse cx="34" cy="15.615" rx="2.833" ry="2.839"/>
        <ellipse cx="49.583" cy="2.839" rx="2.833" ry="2.839"/>
        <ellipse cx="49.583" cy="15.615" rx="2.833" ry="2.839"/>
        <ellipse cx="63.75" cy="2.839" rx="2.833" ry="2.839"/>
        <ellipse cx="63.75" cy="15.615" rx="2.833" ry="2.839"/>
        <ellipse cx="79.333" cy="2.839" rx="2.833" ry="2.839"/>
        <ellipse cx="79.333" cy="15.615" rx="2.833" ry="2.839"/>
        <ellipse cx="94.917" cy="2.839" rx="2.833" ry="2.839"/>
        <ellipse cx="94.917" cy="15.615" rx="2.833" ry="2.839"/>
        <ellipse cx="109.083" cy="2.839" rx="2.833" ry="2.839"/>
        <ellipse cx="109.083" cy="15.615" rx="2.833" ry="2.839"/>
        <ellipse cx="124.667" cy="2.839" rx="2.833" ry="2.839"/>
        <ellipse cx="124.667" cy="15.615" rx="2.833" ry="2.839"/>
        <ellipse cx="140.25" cy="2.839" rx="2.833" ry="2.839"/>
        <ellipse cx="140.25" cy="15.615" rx="2.833" ry="2.839"/>
        <ellipse cx="154.417" cy="2.839" rx="2.833" ry="2.839"/>
        <ellipse cx="154.417" cy="15.615" rx="2.833" ry="2.839"/>
        <ellipse cx="170" cy="2.839" rx="2.833" ry="2.839"/>
        <ellipse cx="170" cy="15.615" rx="2.833" ry="2.839"/>
        <ellipse cx="185.583" cy="2.839" rx="2.833" ry="2.839"/>
        <ellipse cx="185.583" cy="15.615" rx="2.833" ry="2.839"/>
        <ellipse cx="201.167" cy="2.839" rx="2.833" ry="2.839"/>
        <ellipse cx="201.167" cy="15.615" rx="2.833" ry="2.839"/>
        <ellipse cx="2.833" cy="29.811" rx="2.833" ry="2.839"/>
        <ellipse cx="18.417" cy="29.811" rx="2.833" ry="2.839"/>
        <ellipse cx="34" cy="29.811" rx="2.833" ry="2.839"/>
        <ellipse cx="49.583" cy="29.811" rx="2.833" ry="2.839"/>
        <ellipse cx="63.75" cy="29.811" rx="2.833" ry="2.839"/>
        <ellipse cx="79.333" cy="29.811" rx="2.833" ry="2.839"/>
        <ellipse cx="94.917" cy="29.811" rx="2.833" ry="2.839"/>
        <ellipse cx="109.083" cy="29.811" rx="2.833" ry="2.839"/>
        <ellipse cx="124.667" cy="29.811" rx="2.833" ry="2.839"/>
        <ellipse cx="140.25" cy="29.811" rx="2.833" ry="2.839"/>
        <ellipse cx="154.417" cy="29.811" rx="2.833" ry="2.839"/>
        <ellipse cx="170" cy="29.811" rx="2.833" ry="2.839"/>
        <ellipse cx="185.583" cy="29.811" rx="2.833" ry="2.839"/>
        <ellipse cx="201.167" cy="29.811" rx="2.833" ry="2.839"/>
        <ellipse cx="2.833" cy="42.587" rx="2.833" ry="2.839"/>
        <ellipse cx="18.417" cy="42.587" rx="2.833" ry="2.839"/>
        <ellipse cx="34" cy="42.587" rx="2.833" ry="2.839"/>
        <ellipse cx="49.583" cy="42.587" rx="2.833" ry="2.839"/>
        <ellipse cx="63.75" cy="42.587" rx="2.833" ry="2.839"/>
        <ellipse cx="79.333" cy="42.587" rx="2.833" ry="2.839"/>
        <ellipse cx="94.917" cy="42.587" rx="2.833" ry="2.839"/>
        <ellipse cx="109.083" cy="42.587" rx="2.833" ry="2.839"/>
        <ellipse cx="124.667" cy="42.587" rx="2.833" ry="2.839"/>
        <ellipse cx="140.25" cy="42.587" rx="2.833" ry="2.839"/>
        <ellipse cx="154.417" cy="42.587" rx="2.833" ry="2.839"/>
        <ellipse cx="170" cy="42.587" rx="2.833" ry="2.839"/>
        <ellipse cx="185.583" cy="42.587" rx="2.833" ry="2.839"/>
        <ellipse cx="201.167" cy="42.587" rx="2.833" ry="2.839"/>
        <ellipse cx="2.833" cy="55.364" rx="2.833" ry="2.839"/>
        <ellipse cx="18.417" cy="55.364" rx="2.833" ry="2.839"/>
        <ellipse cx="34" cy="55.364" rx="2.833" ry="2.839"/>
        <ellipse cx="49.583" cy="55.364" rx="2.833" ry="2.839"/>
        <ellipse cx="63.75" cy="55.364" rx="2.833" ry="2.839"/>
        <ellipse cx="79.333" cy="55.364" rx="2.833" ry="2.839"/>
        <ellipse cx="94.917" cy="55.364" rx="2.833" ry="2.839"/>
        <ellipse cx="109.083" cy="55.364" rx="2.833" ry="2.839"/>
        <ellipse cx="124.667" cy="55.364" rx="2.833" ry="2.839"/>
        <ellipse cx="140.25" cy="55.364" rx="2.833" ry="2.839"/>
        <ellipse cx="154.417" cy="55.364" rx="2.833" ry="2.839"/>
        <ellipse cx="170" cy="55.364" rx="2.833" ry="2.839"/>
        <ellipse cx="185.583" cy="55.364" rx="2.833" ry="2.839"/>
        <ellipse cx="201.167" cy="55.364" rx="2.833" ry="2.839"/>
        <ellipse cx="2.833" cy="68.14" rx="2.833" ry="2.839"/>
        <ellipse cx="18.417" cy="68.14" rx="2.833" ry="2.839"/>
        <ellipse cx="34" cy="68.14" rx="2.833" ry="2.839"/>
        <ellipse cx="49.583" cy="68.14" rx="2.833" ry="2.839"/>
        <ellipse cx="63.75" cy="68.14" rx="2.833" ry="2.839"/>
        <ellipse cx="79.333" cy="68.14" rx="2.833" ry="2.839"/>
        <ellipse cx="94.917" cy="68.14" rx="2.833" ry="2.839"/>
        <ellipse cx="109.083" cy="68.14" rx="2.833" ry="2.839"/>
        <ellipse cx="124.667" cy="68.14" rx="2.833" ry="2.839"/>
        <ellipse cx="140.25" cy="68.14" rx="2.833" ry="2.839"/>
        <ellipse cx="154.417" cy="68.14" rx="2.833" ry="2.839"/>
        <ellipse cx="170" cy="68.14" rx="2.833" ry="2.839"/>
        <ellipse cx="185.583" cy="68.14" rx="2.833" ry="2.839"/>
        <ellipse cx="201.167" cy="68.14" rx="2.833" ry="2.839"/>
        <ellipse cx="2.833" cy="82.336" rx="2.833" ry="2.839"/>
        <ellipse cx="18.417" cy="82.336" rx="2.833" ry="2.839"/>
        <ellipse cx="34" cy="82.336" rx="2.833" ry="2.839"/>
        <ellipse cx="49.583" cy="82.336" rx="2.833" ry="2.839"/>
        <ellipse cx="63.75" cy="82.336" rx="2.833" ry="2.839"/>
        <ellipse cx="79.333" cy="82.336" rx="2.833" ry="2.839"/>
        <ellipse cx="94.917" cy="82.336" rx="2.833" ry="2.839"/>
        <ellipse cx="109.083" cy="82.336" rx="2.833" ry="2.839"/>
        <ellipse cx="124.667" cy="82.336" rx="2.833" ry="2.839"/>
        <ellipse cx="140.25" cy="82.336" rx="2.833" ry="2.839"/>
        <ellipse cx="154.417" cy="82.336" rx="2.833" ry="2.839"/>
        <ellipse cx="170" cy="82.336" rx="2.833" ry="2.839"/>
        <ellipse cx="185.583" cy="82.336" rx="2.833" ry="2.839"/>
        <ellipse cx="201.167" cy="82.336" rx="2.833" ry="2.839"/>
        <ellipse cx="2.833" cy="95.112" rx="2.833" ry="2.839"/>
        <ellipse cx="18.417" cy="95.112" rx="2.833" ry="2.839"/>
        <ellipse cx="34" cy="95.112" rx="2.833" ry="2.839"/>
        <ellipse cx="49.583" cy="95.112" rx="2.833" ry="2.839"/>
        <ellipse cx="63.75" cy="95.112" rx="2.833" ry="2.839"/>
        <ellipse cx="79.333" cy="95.112" rx="2.833" ry="2.839"/>
        <ellipse cx="94.917" cy="95.112" rx="2.833" ry="2.839"/>
        <ellipse cx="109.083" cy="95.112" rx="2.833" ry="2.839"/>
        <ellipse cx="124.667" cy="95.112" rx="2.833" ry="2.839"/>
        <ellipse cx="140.25" cy="95.112" rx="2.833" ry="2.839"/>
        <ellipse cx="154.417" cy="95.112" rx="2.833" ry="2.839"/>
        <ellipse cx="170" cy="95.112" rx="2.833" ry="2.839"/>
        <ellipse cx="185.583" cy="95.112" rx="2.833" ry="2.839"/>
        <ellipse cx="201.167" cy="95.112" rx="2.833" ry="2.839"/>
        <ellipse cx="2.833" cy="107.888" rx="2.833" ry="2.839"/>
        <ellipse cx="18.417" cy="107.888" rx="2.833" ry="2.839"/>
        <ellipse cx="34" cy="107.888" rx="2.833" ry="2.839"/>
        <ellipse cx="49.583" cy="107.888" rx="2.833" ry="2.839"/>
        <ellipse cx="63.75" cy="107.888" rx="2.833" ry="2.839"/>
        <ellipse cx="79.333" cy="107.888" rx="2.833" ry="2.839"/>
        <ellipse cx="94.917" cy="107.888" rx="2.833" ry="2.839"/>
        <ellipse cx="109.083" cy="107.888" rx="2.833" ry="2.839"/>
        <ellipse cx="124.667" cy="107.888" rx="2.833" ry="2.839"/>
        <ellipse cx="140.25" cy="107.888" rx="2.833" ry="2.839"/>
        <ellipse cx="154.417" cy="107.888" rx="2.833" ry="2.839"/>
        <ellipse cx="170" cy="107.888" rx="2.833" ry="2.839"/>
        <ellipse cx="185.583" cy="107.888" rx="2.833" ry="2.839"/>
        <ellipse cx="201.167" cy="107.888" rx="2.833" ry="2.839"/>
        <ellipse cx="2.833" cy="120.664" rx="2.833" ry="2.839"/>
        <ellipse cx="18.417" cy="120.664" rx="2.833" ry="2.839"/>
        <ellipse cx="34" cy="120.664" rx="2.833" ry="2.839"/>
        <ellipse cx="49.583" cy="120.664" rx="2.833" ry="2.839"/>
        <ellipse cx="63.75" cy="120.664" rx="2.833" ry="2.839"/>
        <ellipse cx="79.333" cy="120.664" rx="2.833" ry="2.839"/>
        <ellipse cx="94.917" cy="120.664" rx="2.833" ry="2.839"/>
        <ellipse cx="109.083" cy="120.664" rx="2.833" ry="2.839"/>
        <ellipse cx="124.667" cy="120.664" rx="2.833" ry="2.839"/>
        <ellipse cx="140.25" cy="120.664" rx="2.833" ry="2.839"/>
        <ellipse cx="154.417" cy="120.664" rx="2.833" ry="2.839"/>
        <ellipse cx="170" cy="120.664" rx="2.833" ry="2.839"/>
        <ellipse cx="185.583" cy="120.664" rx="2.833" ry="2.839"/>
        <ellipse cx="201.167" cy="120.664" rx="2.833" ry="2.839"/>
        <ellipse cx="2.833" cy="134.86" rx="2.833" ry="2.839"/>
        <ellipse cx="18.417" cy="134.86" rx="2.833" ry="2.839"/>
        <ellipse cx="34" cy="134.86" rx="2.833" ry="2.839"/>
        <ellipse cx="49.583" cy="134.86" rx="2.833" ry="2.839"/>
        <ellipse cx="63.75" cy="134.86" rx="2.833" ry="2.839"/>
        <ellipse cx="79.333" cy="134.86" rx="2.833" ry="2.839"/>
        <ellipse cx="94.917" cy="134.86" rx="2.833" ry="2.839"/>
        <ellipse cx="109.083" cy="134.86" rx="2.833" ry="2.839"/>
        <ellipse cx="124.667" cy="134.86" rx="2.833" ry="2.839"/>
        <ellipse cx="140.25" cy="134.86" rx="2.833" ry="2.839"/>
        <ellipse cx="154.417" cy="134.86" rx="2.833" ry="2.839"/>
        <ellipse cx="170" cy="134.86" rx="2.833" ry="2.839"/>
        <ellipse cx="185.583" cy="134.86" rx="2.833" ry="2.839"/>
        <ellipse cx="201.167" cy="134.86" rx="2.833" ry="2.839"/>
        <ellipse cx="2.833" cy="147.636" rx="2.833" ry="2.839"/>
        <ellipse cx="18.417" cy="147.636" rx="2.833" ry="2.839"/>
        <ellipse cx="34" cy="147.636" rx="2.833" ry="2.839"/>
        <ellipse cx="49.583" cy="147.636" rx="2.833" ry="2.839"/>
        <ellipse cx="63.75" cy="147.636" rx="2.833" ry="2.839"/>
        <ellipse cx="79.333" cy="147.636" rx="2.833" ry="2.839"/>
        <ellipse cx="94.917" cy="147.636" rx="2.833" ry="2.839"/>
        <ellipse cx="109.083" cy="147.636" rx="2.833" ry="2.839"/>
        <ellipse cx="124.667" cy="147.636" rx="2.833" ry="2.839"/>
        <ellipse cx="140.25" cy="147.636" rx="2.833" ry="2.839"/>
        <ellipse cx="154.417" cy="147.636" rx="2.833" ry="2.839"/>
        <ellipse cx="170" cy="147.636" rx="2.833" ry="2.839"/>
        <ellipse cx="185.583" cy="147.636" rx="2.833" ry="2.839"/>
        <ellipse cx="201.167" cy="147.636" rx="2.833" ry="2.839"/>
        <ellipse cx="2.833" cy="160.413" rx="2.833" ry="2.839"/>
        <ellipse cx="18.417" cy="160.413" rx="2.833" ry="2.839"/>
        <ellipse cx="34" cy="160.413" rx="2.833" ry="2.839"/>
        <ellipse cx="49.583" cy="160.413" rx="2.833" ry="2.839"/>
        <ellipse cx="63.75" cy="160.413" rx="2.833" ry="2.839"/>
        <ellipse cx="79.333" cy="160.413" rx="2.833" ry="2.839"/>
        <ellipse cx="94.917" cy="160.413" rx="2.833" ry="2.839"/>
        <ellipse cx="109.083" cy="160.413" rx="2.833" ry="2.839"/>
        <ellipse cx="124.667" cy="160.413" rx="2.833" ry="2.839"/>
        <ellipse cx="140.25" cy="160.413" rx="2.833" ry="2.839"/>
        <ellipse cx="154.417" cy="160.413" rx="2.833" ry="2.839"/>
        <ellipse cx="170" cy="160.413" rx="2.833" ry="2.839"/>
        <ellipse cx="185.583" cy="160.413" rx="2.833" ry="2.839"/>
        <ellipse cx="201.167" cy="160.413" rx="2.833" ry="2.839"/>
        <ellipse cx="2.833" cy="173.189" rx="2.833" ry="2.839"/>
        <ellipse cx="18.417" cy="173.189" rx="2.833" ry="2.839"/>
        <ellipse cx="34" cy="173.189" rx="2.833" ry="2.839"/>
        <ellipse cx="49.583" cy="173.189" rx="2.833" ry="2.839"/>
        <ellipse cx="63.75" cy="173.189" rx="2.833" ry="2.839"/>
        <ellipse cx="79.333" cy="173.189" rx="2.833" ry="2.839"/>
        <ellipse cx="94.917" cy="173.189" rx="2.833" ry="2.839"/>
        <ellipse cx="109.083" cy="173.189" rx="2.833" ry="2.839"/>
        <ellipse cx="124.667" cy="173.189" rx="2.833" ry="2.839"/>
        <ellipse cx="140.25" cy="173.189" rx="2.833" ry="2.839"/>
        <ellipse cx="154.417" cy="173.189" rx="2.833" ry="2.839"/>
        <ellipse cx="170" cy="173.189" rx="2.833" ry="2.839"/>
        <ellipse cx="185.583" cy="173.189" rx="2.833" ry="2.839"/>
        <ellipse cx="201.167" cy="173.189" rx="2.833" ry="2.839"/>
        <ellipse cx="2.833" cy="187.385" rx="2.833" ry="2.839"/>
        <ellipse cx="18.417" cy="187.385" rx="2.833" ry="2.839"/>
        <ellipse cx="34" cy="187.385" rx="2.833" ry="2.839"/>
        <ellipse cx="49.583" cy="187.385" rx="2.833" ry="2.839"/>
        <ellipse cx="63.75" cy="187.385" rx="2.833" ry="2.839"/>
        <ellipse cx="79.333" cy="187.385" rx="2.833" ry="2.839"/>
        <ellipse cx="94.917" cy="187.385" rx="2.833" ry="2.839"/>
        <ellipse cx="109.083" cy="187.385" rx="2.833" ry="2.839"/>
        <ellipse cx="124.667" cy="187.385" rx="2.833" ry="2.839"/>
        <ellipse cx="140.25" cy="187.385" rx="2.833" ry="2.839"/>
        <ellipse cx="154.417" cy="187.385" rx="2.833" ry="2.839"/>
        <ellipse cx="170" cy="187.385" rx="2.833" ry="2.839"/>
        <ellipse cx="185.583" cy="187.385" rx="2.833" ry="2.839"/>
        <ellipse cx="201.167" cy="187.385" rx="2.833" ry="2.839"/>
        <ellipse cx="2.833" cy="200.161" rx="2.833" ry="2.839"/>
        <ellipse cx="18.417" cy="200.161" rx="2.833" ry="2.839"/>
        <ellipse cx="34" cy="200.161" rx="2.833" ry="2.839"/>
        <ellipse cx="49.583" cy="200.161" rx="2.833" ry="2.839"/>
        <ellipse cx="63.75" cy="200.161" rx="2.833" ry="2.839"/>
        <ellipse cx="79.333" cy="200.161" rx="2.833" ry="2.839"/>
        <ellipse cx="94.917" cy="200.161" rx="2.833" ry="2.839"/>
        <ellipse cx="109.083" cy="200.161" rx="2.833" ry="2.839"/>
        <ellipse cx="124.667" cy="200.161" rx="2.833" ry="2.839"/>
        <ellipse cx="140.25" cy="200.161" rx="2.833" ry="2.839"/>
        <ellipse cx="154.417" cy="200.161" rx="2.833" ry="2.839"/>
        <ellipse cx="170" cy="200.161" rx="2.833" ry="2.839"/>
        <ellipse cx="185.583" cy="200.161" rx="2.833" ry="2.839"/>
        <ellipse cx="201.167" cy="200.161" rx="2.833" ry="2.839"/>
    </g>
</svg>
