<svg xmlns="http://www.w3.org/2000/svg" xmlns:xlink="http://www.w3.org/1999/xlink" width="74" height="63" viewBox="0 0 74 63">
    <defs>
        <path id="b" d="M7.007 7.62c-.588-.431-1.269-.668-1.945-.86-.091-.025-.182-.046-.273-.07V2.603c.652.098 1.135.301 1.456.552.228.177.384.375.492.598.106.222.162.474.163.762a.67.67 0 0 0 1.338 0 3.09 3.09 0 0 0-.293-1.34c-.296-.623-.824-1.135-1.51-1.468-.474-.23-1.027-.377-1.646-.45V.669a.67.67 0 1 0-1.339 0v.552a4.67 4.67 0 0 0-1.306.28C1.387 1.786.832 2.274.49 2.824a3.196 3.196 0 0 0-.488 1.69c-.002.573.136 1.089.395 1.508.225.368.531.654.865.873.587.383 1.257.59 1.925.768l.264.066v4.395c-.651-.072-1.15-.28-1.485-.565-.411-.353-.622-.804-.626-1.378a.67.67 0 1 0-1.339 0 3.09 3.09 0 0 0 1.1 2.4c.605.512 1.413.819 2.35.895v.581a.67.67 0 1 0 1.338 0v-.605c.758-.077 1.466-.264 2.07-.638a2.851 2.851 0 0 0 1.014-1.066c.244-.45.367-.982.366-1.567 0-.611-.13-1.153-.38-1.604a2.966 2.966 0 0 0-.851-.958zM3.449 6.347c-.651-.175-1.213-.379-1.556-.642a1.333 1.333 0 0 1-.404-.466c-.09-.18-.15-.403-.15-.723-.001-.412.15-.904.52-1.28.186-.19.428-.358.76-.485.23-.087.506-.151.83-.185v3.78zm3.245 4.766a1.456 1.456 0 0 1-.375.445c-.238.191-.567.345-.977.447a4.76 4.76 0 0 1-.554.1v-4.03c.41.119.784.25 1.088.413.338.179.582.382.748.633.165.252.273.569.275 1.06 0 .405-.081.7-.205.932z"/>
        <filter id="a" width="185%" height="147.5%" x="-42.5%" y="-17%" filterUnits="objectBoundingBox">
            <feOffset dy="1" in="SourceAlpha" result="shadowOffsetOuter1"/>
            <feGaussianBlur in="shadowOffsetOuter1" result="shadowBlurOuter1" stdDeviation="1"/>
            <feColorMatrix in="shadowBlurOuter1" values="0 0 0 0 0 0 0 0 0 0 0 0 0 0 0 0 0 0 0.5 0"/>
        </filter>
    </defs>
    <g fill="none" fill-rule="evenodd">
        <path d="M-10-12h95v95h-95z"/>
        <g fill-rule="nonzero">
            <path fill="#5A5C7E" stroke="#161832" d="M66.764 18.124l-19.146 16.24-19.145-16.24h8.205V.982h21.88v17.142z"/>
            <path d="M47.058 35.143c.319.27.802.27 1.12 0l19.275-16.367c.594-.505.22-1.5-.56-1.5h-7.4v-9.66a.857.857 0 0 0-.86-.853.857.857 0 0 0-.861.852V18.13c0 .47.385.852.86.852h5.935L47.618 33.373 30.67 18.98h5.935c.475 0 .86-.382.86-.852V1.705h20.308v1.989c0 .47.385.852.86.852.476 0 .861-.381.861-.852V.852a.857.857 0 0 0-.86-.852H36.603a.857.857 0 0 0-.86.852v16.424h-7.4c-.781 0-1.155.996-.56 1.5l19.274 16.367z"/>
            <path fill="#F2E0D4" d="M72.938 41.65c-1.472-2.51-4.733-3.37-7.283-1.92l-12.136 6.895a4.23 4.23 0 0 1-2.826.486l-15.832-2.805-2.2-.25h12.992c2.921 0 5.289-2.35 5.289-5.248 0-.91-.744-1.649-1.662-1.649H34.259a7.326 7.326 0 0 0-3.05.664l-9.854 4.513a11.798 11.798 0 0 1-4.912 1.07h-.334v13.796h2.909l33.129-2.887.071-.006.956-.077a5.66 5.66 0 0 0 2.223-.71l16.928-9.619a1.635 1.635 0 0 0 .613-2.253z"/>
            <path fill="#5A5C7E" d="M10.512 61.878H.672v-24.05h9.84c.496 0 .899.404.899.904v22.24c0 .5-.403.906-.899.906z"/>
            <path fill="#161832" d="M10.54 62.546H.638A.64.64 0 0 1 0 61.905V37.8a.64.64 0 0 1 .639-.641h9.9c.851 0 1.543.695 1.543 1.549v22.29c0 .853-.692 1.548-1.543 1.548zm-9.262-1.283h9.262c.146 0 .264-.12.264-.266v-22.29a.265.265 0 0 0-.264-.265H1.278v22.821z"/>
            <path fill="#161832" d="M14.679 60.542h-3.313a.627.627 0 0 1-.626-.628V40.46c0-.347.28-.628.626-.628h3.313c.789 0 1.43.644 1.43 1.434v17.843c0 .79-.642 1.434-1.43 1.434zm-2.687-1.255h2.687c.098 0 .178-.08.178-.179V41.265a.179.179 0 0 0-.178-.178h-2.687v18.2z"/>
            <path fill="#161832" d="M18.99 57.87h-2.912a.638.638 0 0 1-.64-.636v-13.84c0-.35.287-.636.64-.636h.334c1.594 0 3.201-.35 4.65-1.015l9.864-4.527a8.022 8.022 0 0 1 3.321-.725h15.038a2.3 2.3 0 0 1 2.303 2.29c0 3.254-2.662 5.902-5.934 5.902H40.66l10.153 1.803a3.59 3.59 0 0 0 2.399-.414l12.148-6.918c2.854-1.624 6.515-.656 8.163 2.159a2.277 2.277 0 0 1-.85 3.132l-16.947 9.65c-.766.437-1.599.703-2.477.792l-1.035.084-33.169 2.896a.764.764 0 0 1-.055.003zm-2.272-1.273h2.243l33.21-2.899.961-.077a4.972 4.972 0 0 0 1.959-.63l16.947-9.65c.24-.137.412-.357.483-.62a.997.997 0 0 0-.103-.769c-1.296-2.213-4.177-2.973-6.422-1.695l-12.148 6.918a4.875 4.875 0 0 1-3.26.563l-15.83-2.811-2.183-.248a.637.637 0 0 1 .073-1.269h13.007c2.567 0 4.655-2.076 4.655-4.629 0-.562-.46-1.018-1.024-1.018H34.249a6.72 6.72 0 0 0-2.785.608l-9.866 4.527a12.536 12.536 0 0 1-4.88 1.129v12.57z"/>
            <g>
                <g transform="translate(43.2 5.89)">
                    <use fill="#000" filter="url(#a)" xlink:href="#b"/>
                    <use fill="#FFF" xlink:href="#b"/>
                </g>
            </g>
        </g>
    </g>
</svg>
