<svg xmlns="http://www.w3.org/2000/svg" width="66" height="68" viewBox="0 0 66 68">
    <g fill="none" fill-rule="evenodd">
        <path d="M-15-14h95v95h-95z"/>
        <g fill-rule="nonzero" transform="translate(1)">
            <g stroke="#010133" stroke-width="1.5">
                <path fill="#5A5C7E" d="M4.414 50.421h12.138V67h6.62V48.21h17.656V67h6.62V50.421h12.138A4.418 4.418 0 0 0 64 46V29.421A4.418 4.418 0 0 0 59.586 25H54.07a4.418 4.418 0 0 0-4.414 4.421v8.842H37.517v5.526H26.483v-5.526H14.345v-8.842A4.418 4.418 0 0 0 9.93 25H4.414A4.418 4.418 0 0 0 0 29.421V46a4.418 4.418 0 0 0 4.414 4.421z"/>
                <path fill="#F2E0D4" d="M35.31 25h-6.62L32 33.842z"/>
            </g>
            <path fill="#F6BF58" stroke="#010133" stroke-width="1.5" d="M26.5 44h11v-5.588H43v-6.706C43 28.002 40.045 25 36.4 25h-1.1L32 33.941 28.7 25h-1.1c-3.645 0-6.6 3.002-6.6 6.706v6.706h5.5V44z"/>
            <circle cx="8.5" cy="17.5" r="6.5" fill="#F2E0D4" stroke="#010133"/>
            <circle cx="32.5" cy="17.5" r="6.5" fill="#F2E0D4" stroke="#010133"/>
            <g stroke="#010133" transform="translate(11 1)">
                <ellipse cx="44.348" cy="16.429" fill="#F2E0D4" rx="6.652" ry="6.571"/>
                <path fill="#5A5C7E" d="M9.978 5.476h5.544V0H0v5.476h5.543v3.286z"/>
            </g>
            <path fill="#010133" d="M30.9 36.787h2.2v2.23h-2.2z"/>
            <path d="M16.108 11.03a1.097 1.097 0 0 0 1.152-.105l4.106-3.122H26.5c.607 0 1.1-.5 1.1-1.114V1.115C27.6.499 27.107 0 26.5 0H11.1c-.607 0-1.1.5-1.1 1.115v5.574c0 .615.493 1.114 1.1 1.114h4.4v2.23c0 .422.235.808.608.997zM12.2 5.574V2.23h13.2v3.344H21c-.238 0-.47.078-.66.223L17.7 7.803V6.69c0-.616-.493-1.115-1.1-1.115h-4.4z"/>
            <path fill="#010133" d="M37.5 3.344h2.2v2.23h-2.2zM41.9 3.344h2.2v2.23h-2.2zM46.3 3.344h2.2v2.23h-2.2z"/>
        </g>
    </g>
</svg>
