<svg xmlns="http://www.w3.org/2000/svg" width="77" height="77" viewBox="0 0 77 77">
    <g fill="none" fill-rule="evenodd">
        <path d="M-16-16H93V93H-16z"/>
        <g fill-rule="nonzero" transform="translate(.9 .054)">
            <ellipse cx="43.754" cy="27.899" fill="#FAF7F5" rx="26.662" ry="26.538"/>
            <path fill="#E0E0E0" d="M44.095 55.117c-15.267 0-27.687-12.363-27.687-27.559C16.408 12.362 28.828 0 44.095 0c15.268 0 27.688 12.362 27.688 27.558s-12.42 27.559-27.688 27.559zm0-53.169c-14.188 0-25.731 11.489-25.731 25.61 0 14.122 11.543 25.611 25.731 25.611 14.189 0 25.732-11.489 25.732-25.61 0-14.122-11.543-25.61-25.732-25.61z"/>
            <path fill="#E0E0E0" d="M44.095 55.117c-4.4 0-8.491-2.942-11.522-8.283-2.93-5.165-4.543-12.01-4.543-19.276 0-7.265 1.613-14.11 4.543-19.275C35.603 2.942 39.696 0 44.095 0c4.4 0 8.492 2.942 11.523 8.283 2.93 5.165 4.543 12.01 4.543 19.275 0 7.266-1.613 14.11-4.543 19.276-3.031 5.341-7.123 8.283-11.523 8.283zm0-53.168c-7.773 0-14.097 11.488-14.097 25.61 0 14.12 6.324 25.61 14.097 25.61 7.774 0 14.098-11.49 14.098-25.61 0-14.122-6.324-25.61-14.098-25.61z"/>
            <path fill="#E0E0E0" d="M43.194 17.692c-7.42 0-14.402-2.82-19.66-7.939a.948.948 0 0 1-.017-1.348C28.827 2.985 35.971 0 43.633 0c3.747 0 7.384.716 10.81 2.128a27.808 27.808 0 0 1 8.848 5.83c.379.371.386.97.015 1.348-5.306 5.408-12.448 8.386-20.112 8.386zM25.632 9.055c4.797 4.336 10.995 6.712 17.562 6.712 6.794 0 13.147-2.519 17.998-7.113a25.848 25.848 0 0 0-7.515-4.753 26.232 26.232 0 0 0-10.044-1.976c-6.792 0-13.146 2.524-18 7.13zM43.896 55.117c-7.434 0-14.423-2.83-19.68-7.967a.947.947 0 0 1-.014-1.346c5.3-5.403 12.436-8.379 20.093-8.379 7.434 0 14.423 2.83 19.68 7.967.378.37.385.968.014 1.346-5.3 5.403-12.436 8.379-20.093 8.379zm-17.583-8.662c4.796 4.353 11.002 6.738 17.583 6.738 6.788 0 13.135-2.516 17.982-7.106-4.797-4.353-11.002-6.739-17.583-6.739-6.788 0-13.135 2.517-17.982 7.107zM70.805 29.26h-53.42c-.54 0-.977-.457-.977-1.021 0-.564.438-1.02.978-1.02h53.42c.54 0 .977.456.977 1.02 0 .564-.438 1.02-.978 1.02z"/>
            <path fill="#161832" d="M44.095 55.797c-15.644 0-28.371-12.514-28.371-27.898S28.451 0 44.095 0C59.74 0 72.467 12.515 72.467 27.899S59.739 55.797 44.095 55.797zm0-54.506c-14.92 0-27.058 11.936-27.058 26.608s12.138 26.608 27.058 26.608 27.06-11.936 27.06-26.608c0-14.671-12.14-26.608-27.06-26.608z"/>
            <path fill="#F2E0D4" d="M74.289 55.609c-1.5-2.557-4.821-3.433-7.418-1.957l-12.36 7.024c-.872.495-1.89.67-2.879.495l-16.125-2.857-2.242-.255H46.5c2.975 0 5.386-2.393 5.386-5.345 0-.928-.758-1.68-1.693-1.68H34.893c-1.072 0-2.132.231-3.106.677L21.75 56.307a12.017 12.017 0 0 1-5.003 1.09h-.34v14.05h2.963l33.742-2.94.073-.005.974-.079a5.765 5.765 0 0 0 2.264-.722l17.242-9.798a1.666 1.666 0 0 0 .624-2.294z"/>
            <path fill="#5A5C7E" d="M10.707 76.211H.684V51.715h10.023c.505 0 .915.412.915.922v22.652c0 .51-.41.922-.915.922z"/>
            <path fill="#161832" d="M10.734 76.891H.651A.652.652 0 0 1 0 76.238v-24.55c0-.361.292-.654.65-.654h10.084c.867 0 1.572.708 1.572 1.577v22.703c0 .87-.705 1.577-1.572 1.577zm-9.432-1.306h9.433a.27.27 0 0 0 .27-.271V52.61a.27.27 0 0 0-.27-.27H1.302v23.244z"/>
            <path fill="#161832" d="M14.95 74.85h-3.374a.639.639 0 0 1-.638-.64V54.396c0-.353.286-.639.638-.639h3.375a1.46 1.46 0 0 1 1.457 1.46V73.39a1.46 1.46 0 0 1-1.457 1.46zm-2.736-1.278h2.737c.1 0 .181-.082.181-.182V55.217c0-.1-.081-.182-.181-.182h-2.737v18.537z"/>
            <path fill="#161832" d="M19.34 72.128h-2.965a.65.65 0 0 1-.651-.648V57.385a.65.65 0 0 1 .651-.648h.34c1.624 0 3.262-.357 4.736-1.034l10.048-4.61a8.17 8.17 0 0 1 3.382-.74h15.316a2.342 2.342 0 0 1 2.346 2.334c0 3.314-2.71 6.01-6.043 6.01h-5.088l10.34 1.837c.84.148 1.706-.001 2.444-.422l12.374-7.046c2.906-1.654 6.635-.668 8.313 2.199a2.32 2.32 0 0 1-.865 3.19l-17.26 9.83a6.373 6.373 0 0 1-2.524.806l-1.054.085-33.783 2.95a.778.778 0 0 1-.056.002zm-2.313-1.295h2.285l33.826-2.953.978-.08a5.064 5.064 0 0 0 1.995-.64l17.261-9.83c.245-.139.42-.363.492-.632a1.016 1.016 0 0 0-.105-.782c-1.32-2.254-4.254-3.028-6.54-1.726l-12.374 7.046a4.965 4.965 0 0 1-3.32.573l-16.123-2.863-2.223-.253a.65.65 0 0 1-.577-.68.65.65 0 0 1 .65-.612h13.249c2.614 0 4.74-2.114 4.74-4.714 0-.573-.467-1.038-1.042-1.038H34.883c-.973 0-1.954.214-2.837.62l-10.048 4.61a12.768 12.768 0 0 1-4.97 1.15v12.804z"/>
            <path fill="#FFF" d="M14.923 53.756h-3.3V74.17h3.3c.442 0 .801-.379.801-.846V54.602c0-.467-.358-.846-.801-.846z"/>
            <path fill="#6BDDDD" d="M37.6 36.064H24.611v-2.619c0-3.063 2.51-5.546 5.607-5.546h1.776c3.097 0 5.607 2.483 5.607 5.546v2.62z"/>
            <ellipse cx="31.106" cy="21.094" fill="#F2E0D4" rx="6.495" ry="6.124"/>
            <path fill="#F9A7A7" d="M63.58 36.064H50.59v-2.619c0-3.063 2.51-5.546 5.606-5.546h1.777c3.096 0 5.606 2.483 5.606 5.546v2.62z"/>
            <ellipse cx="57.085" cy="21.094" fill="#F2E0D4" rx="6.495" ry="6.124"/>
            <path fill="#D5D5D6" d="M50.59 41.508H37.6v-2.62c0-3.063 2.51-5.546 5.607-5.546h1.777c3.096 0 5.606 2.483 5.606 5.547v2.619z"/>
            <ellipse cx="44.095" cy="26.878" fill="#F2E0D4" rx="6.495" ry="6.464"/>
            <g fill="#161832">
                <path d="M37.911 36.118H25.316a.646.646 0 0 1-.65-.641v-2.533c0-3.31 2.73-6.005 6.086-6.005h1.723c3.356 0 6.086 2.694 6.086 6.005v2.533a.646.646 0 0 1-.65.64zm-11.945-1.283h11.295v-1.89c0-2.605-2.147-4.723-4.786-4.723h-1.723c-2.64 0-4.786 2.118-4.786 4.722v1.891z"/>
                <path d="M31.614 28.222c-3.831 0-6.948-3.075-6.948-6.855 0-3.78 3.117-6.855 6.948-6.855 3.83 0 6.947 3.075 6.947 6.855 0 3.78-3.117 6.855-6.947 6.855zm0-12.427c-3.114 0-5.648 2.5-5.648 5.572 0 3.073 2.534 5.572 5.648 5.572 3.113 0 5.647-2.5 5.647-5.572s-2.534-5.572-5.647-5.572zM63.454 36.118H50.859a.646.646 0 0 1-.65-.641v-2.533c0-3.31 2.73-6.005 6.086-6.005h1.723c3.355 0 6.086 2.694 6.086 6.005v2.533a.646.646 0 0 1-.65.64zm-11.945-1.283h11.295v-1.89c0-2.605-2.147-4.723-4.787-4.723h-1.723c-2.639 0-4.786 2.118-4.786 4.722v1.891z"/>
                <path d="M57.156 28.222c-3.83 0-6.947-3.075-6.947-6.855 0-3.78 3.116-6.855 6.947-6.855s6.948 3.075 6.948 6.855c0 3.78-3.117 6.855-6.948 6.855zm0-12.427c-3.114 0-5.647 2.5-5.647 5.572 0 3.073 2.533 5.572 5.647 5.572 3.114 0 5.648-2.5 5.648-5.572s-2.534-5.572-5.648-5.572zM50.93 42.098H37.84a.646.646 0 0 1-.65-.642v-2.632c0-3.427 2.826-6.215 6.3-6.215h1.79c3.474 0 6.3 2.788 6.3 6.215v2.632a.646.646 0 0 1-.65.642zm-12.44-1.283h11.79v-1.99c0-2.72-2.244-4.933-5-4.933h-1.79c-2.757 0-5 2.212-5 4.932v1.991z"/>
                <path d="M44.385 33.892c-3.967 0-7.195-3.185-7.195-7.099s3.228-7.098 7.195-7.098 7.194 3.184 7.194 7.098c0 3.914-3.227 7.099-7.194 7.099zm0-12.915c-3.25 0-5.895 2.61-5.895 5.816 0 3.207 2.644 5.816 5.895 5.816 3.25 0 5.894-2.609 5.894-5.816s-2.644-5.816-5.894-5.816z"/>
            </g>
        </g>
    </g>
</svg>
