<svg xmlns="http://www.w3.org/2000/svg" width="67" height="78" viewBox="0 0 67 78">
    <g fill="none" fill-rule="evenodd">
        <path d="M-14-9h95v95h-95z"/>
        <g fill-rule="nonzero" transform="translate(.729 -.163)">
            <path fill="#FFF" d="M22.082 20.224H17.28l.001.013v32.701h4.802a1.75 1.75 0 0 0 1.752-1.748V21.972a1.75 1.75 0 0 0-1.752-1.748z"/>
            <path fill="#F2E0D4" d="M63.124 28.969A2.706 2.706 0 0 0 64.35 26.7v-3.11a2.727 2.727 0 0 0-2.726-2.729H43.974a1.645 1.645 0 0 1-1.644-1.646V9.063c0-4.343-3.513-7.865-7.849-7.873a2.35 2.35 0 0 0-2.356 2.343v6.795a9.327 9.327 0 0 1-1.212 4.599l-4.868 8.593a5.139 5.139 0 0 0-.649 2.504v.056h-1.562v21.945h1.597a6.785 6.785 0 0 0 6.746 6.103h29.309a2.866 2.866 0 0 0 2.865-2.868v-2.58c0-.882-.397-1.67-1.022-2.197a.869.869 0 0 1 0-1.344 2.863 2.863 0 0 0 1.022-2.195v-2.581c0-.882-.397-1.67-1.022-2.196a.87.87 0 0 1 0-1.344 2.862 2.862 0 0 0 1.022-2.196v-2.58c0-.983-.497-1.842-1.25-2.355-.258-.176-.237-.552.023-.723z"/>
            <path fill="#5A5C7E" d="M13.963 57.102H3.083c-1.374 0-2.487-1.1-2.487-2.458V19.708c0-1.358 1.113-2.458 2.487-2.458h10.88c1.832 0 3.316 1.467 3.316 3.277v33.297c0 1.81-1.484 3.278-3.316 3.278z"/>
            <g fill="#161832">
                <path d="M14.107 58.127H3.327a3.131 3.131 0 0 1-3.12-3.135V19.8c0-1.729 1.4-3.135 3.12-3.135h10.78c2.173 0 3.94 1.777 3.94 3.96v33.541c0 2.184-1.767 3.96-3.94 3.96zM3.327 17.982c-.998 0-1.81.816-1.81 1.818v35.192c0 1.003.812 1.818 1.81 1.818h10.78a2.64 2.64 0 0 0 2.63-2.643V20.625a2.64 2.64 0 0 0-2.63-2.643H3.327z"/>
                <path d="M22.189 54.161h-4.797a.657.657 0 0 1-.655-.658V20.64v-.028c0-.364.293-.659.655-.659h4.797a2.414 2.414 0 0 1 2.405 2.417v29.374a2.414 2.414 0 0 1-2.405 2.417zm-4.141-1.317h4.14c.604 0 1.095-.493 1.095-1.1V22.37c0-.606-.49-1.1-1.094-1.1h-4.141v31.574z"/>
                <path d="M61.8 55.016H32.328a7.455 7.455 0 0 1-7.353-6.16h-1.037a.657.657 0 0 1-.655-.66V26.049c0-.363.294-.659.655-.659h.947c.082-.786.321-1.552.704-2.245l4.898-8.678a8.8 8.8 0 0 0 1.133-4.316V3.29c0-.806.314-1.564.883-2.135A2.997 2.997 0 0 1 34.64.268h.006c4.712.009 8.546 3.87 8.546 8.605V19.12c0 .553.448 1.002.998 1.002h17.75c1.872 0 3.396 1.532 3.396 3.413v3.14a3.392 3.392 0 0 1-1.29 2.665 3.536 3.536 0 0 1 1.29 2.73v2.605c0 1.05-.46 2.042-1.261 2.72a.224.224 0 0 0-.087.174c0 .047.015.114.086.174a3.555 3.555 0 0 1 1.262 2.72v2.606c0 1.05-.46 2.042-1.261 2.72a.224.224 0 0 0-.087.174c0 .046.015.114.086.174a3.556 3.556 0 0 1 1.262 2.72v2.605c0 1.959-1.587 3.553-3.536 3.553zm-37.206-7.478h.95c.337 0 .619.256.652.593a6.151 6.151 0 0 0 6.132 5.567H61.8a2.233 2.233 0 0 0 2.225-2.235v-2.605c0-.662-.29-1.286-.794-1.713a1.548 1.548 0 0 1-.554-1.182c0-.454.202-.885.554-1.182.504-.427.794-1.05.794-1.712v-2.605c0-.662-.29-1.286-.794-1.713a1.547 1.547 0 0 1-.553-1.182c0-.454.201-.885.553-1.182.504-.426.794-1.05.794-1.712V32.07c0-.732-.363-1.417-.97-1.832a1.08 1.08 0 0 1-.472-.902c.003-.372.191-.716.503-.923a2.079 2.079 0 0 0 .938-1.738v-3.139a2.093 2.093 0 0 0-2.085-2.096H44.19a2.317 2.317 0 0 1-2.309-2.32V8.873c0-4.011-3.247-7.28-7.238-7.288h-.004c-.457 0-.886.178-1.21.503-.32.322-.498.75-.498 1.203v6.859c0 1.738-.451 3.455-1.304 4.966l-4.895 8.674a4.567 4.567 0 0 0-.567 2.202v.056a.657.657 0 0 1-.656.66h-.915v20.83z"/>
            </g>
            <ellipse cx="32.771" cy="60.968" fill="#FFF" rx="15.492" ry="15.763"/>
            <ellipse cx="32.771" cy="60.968" fill="#5A5C7E" rx="11.321" ry="11.599"/>
            <path fill="#161832" d="M33.07 77.326c-9.036 0-16.386-7.338-16.386-16.358s7.35-16.357 16.385-16.357c9.035 0 16.386 7.338 16.386 16.357 0 9.02-7.35 16.358-16.386 16.358zm0-31.398c-8.309 0-15.067 6.747-15.067 15.04 0 8.294 6.758 15.04 15.066 15.04s15.067-6.746 15.067-15.04c0-8.293-6.759-15.04-15.067-15.04z"/>
            <path fill="#FFF" d="M30.205 67.809c-.028 0-.056 0-.085-.002a2.777 2.777 0 0 1-2.127-1.1l-3.797-4.969a1.773 1.773 0 0 1 .3-2.457 1.697 1.697 0 0 1 2.413.306l3.325 4.352 8.465-9.81a1.697 1.697 0 0 1 2.426-.16c.713.639.783 1.745.156 2.471L32.308 66.84a2.77 2.77 0 0 1-2.103.97z"/>
        </g>
    </g>
</svg>
